<?xml version="1.0" encoding="utf-8" standalone="no"?>
<!DOCTYPE svg PUBLIC "-//W3C//DTD SVG 1.1//EN"
  "http://www.w3.org/Graphics/SVG/1.1/DTD/svg11.dtd">
<svg xmlns:xlink="http://www.w3.org/1999/xlink" width="432pt" height="288pt" viewBox="0 0 432 288" xmlns="http://www.w3.org/2000/svg" version="1.1">
 <metadata>
  <rdf:RDF xmlns:dc="http://purl.org/dc/elements/1.1/" xmlns:cc="http://creativecommons.org/ns#" xmlns:rdf="http://www.w3.org/1999/02/22-rdf-syntax-ns#">
   <cc:Work>
    <dc:type rdf:resource="http://purl.org/dc/dcmitype/StillImage"/>
    <dc:date>2024-11-17T13:36:09.226330</dc:date>
    <dc:format>image/svg+xml</dc:format>
    <dc:creator>
     <cc:Agent>
      <dc:title>Matplotlib v3.9.2, https://matplotlib.org/</dc:title>
     </cc:Agent>
    </dc:creator>
   </cc:Work>
  </rdf:RDF>
 </metadata>
 <defs>
  <style type="text/css">*{stroke-linejoin: round; stroke-linecap: butt}</style>
 </defs>
 <g id="figure_1">
  <g id="patch_1">
   <path d="M 0 288 
L 432 288 
L 432 0 
L 0 0 
z
" style="fill: #ffffff"/>
  </g>
  <g id="axes_1">
   <g id="patch_2">
    <path d="M 46.55 246.04 
L 421.2 246.04 
L 421.2 58.56 
L 46.55 58.56 
z
" style="fill: #ffffff"/>
   </g>
   <g id="matplotlib.axis_1">
    <g id="xtick_1">
     <g id="line2d_1">
      <path d="M 46.55 246.04 
L 46.55 58.56 
" clip-path="url(#p05b19f3413)" style="fill: none; stroke: #b0b0b0; stroke-width: 0.8; stroke-linecap: square"/>
     </g>
     <g id="line2d_2">
      <defs>
       <path id="m12c9f103fe" d="M 0 0 
L 0 3.5 
" style="stroke: #000000; stroke-width: 0.8"/>
      </defs>
      <g>
       <use xlink:href="#m12c9f103fe" x="46.55" y="246.04" style="stroke: #000000; stroke-width: 0.8"/>
      </g>
     </g>
     <g id="text_1">
      <!-- −6 -->
      <g transform="translate(39.178906 260.638438) scale(0.1 -0.1)">
       <defs>
        <path id="DejaVuSans-2212" d="M 678 2272 
L 4684 2272 
L 4684 1741 
L 678 1741 
L 678 2272 
z
" transform="scale(0.015625)"/>
        <path id="DejaVuSans-36" d="M 2113 2584 
Q 1688 2584 1439 2293 
Q 1191 2003 1191 1497 
Q 1191 994 1439 701 
Q 1688 409 2113 409 
Q 2538 409 2786 701 
Q 3034 994 3034 1497 
Q 3034 2003 2786 2293 
Q 2538 2584 2113 2584 
z
M 3366 4563 
L 3366 3988 
Q 3128 4100 2886 4159 
Q 2644 4219 2406 4219 
Q 1781 4219 1451 3797 
Q 1122 3375 1075 2522 
Q 1259 2794 1537 2939 
Q 1816 3084 2150 3084 
Q 2853 3084 3261 2657 
Q 3669 2231 3669 1497 
Q 3669 778 3244 343 
Q 2819 -91 2113 -91 
Q 1303 -91 875 529 
Q 447 1150 447 2328 
Q 447 3434 972 4092 
Q 1497 4750 2381 4750 
Q 2619 4750 2861 4703 
Q 3103 4656 3366 4563 
z
" transform="scale(0.015625)"/>
       </defs>
       <use xlink:href="#DejaVuSans-2212"/>
       <use xlink:href="#DejaVuSans-36" x="83.789062"/>
      </g>
     </g>
    </g>
    <g id="xtick_2">
     <g id="line2d_3">
      <path d="M 104.188462 246.04 
L 104.188462 58.56 
" clip-path="url(#p05b19f3413)" style="fill: none; stroke: #b0b0b0; stroke-width: 0.8; stroke-linecap: square"/>
     </g>
     <g id="line2d_4">
      <g>
       <use xlink:href="#m12c9f103fe" x="104.188462" y="246.04" style="stroke: #000000; stroke-width: 0.8"/>
      </g>
     </g>
     <g id="text_2">
      <!-- −4 -->
      <g transform="translate(96.817368 260.638438) scale(0.1 -0.1)">
       <defs>
        <path id="DejaVuSans-34" d="M 2419 4116 
L 825 1625 
L 2419 1625 
L 2419 4116 
z
M 2253 4666 
L 3047 4666 
L 3047 1625 
L 3713 1625 
L 3713 1100 
L 3047 1100 
L 3047 0 
L 2419 0 
L 2419 1100 
L 313 1100 
L 313 1709 
L 2253 4666 
z
" transform="scale(0.015625)"/>
       </defs>
       <use xlink:href="#DejaVuSans-2212"/>
       <use xlink:href="#DejaVuSans-34" x="83.789062"/>
      </g>
     </g>
    </g>
    <g id="xtick_3">
     <g id="line2d_5">
      <path d="M 161.826923 246.04 
L 161.826923 58.56 
" clip-path="url(#p05b19f3413)" style="fill: none; stroke: #b0b0b0; stroke-width: 0.8; stroke-linecap: square"/>
     </g>
     <g id="line2d_6">
      <g>
       <use xlink:href="#m12c9f103fe" x="161.826923" y="246.04" style="stroke: #000000; stroke-width: 0.8"/>
      </g>
     </g>
     <g id="text_3">
      <!-- −2 -->
      <g transform="translate(154.455829 260.638438) scale(0.1 -0.1)">
       <defs>
        <path id="DejaVuSans-32" d="M 1228 531 
L 3431 531 
L 3431 0 
L 469 0 
L 469 531 
Q 828 903 1448 1529 
Q 2069 2156 2228 2338 
Q 2531 2678 2651 2914 
Q 2772 3150 2772 3378 
Q 2772 3750 2511 3984 
Q 2250 4219 1831 4219 
Q 1534 4219 1204 4116 
Q 875 4013 500 3803 
L 500 4441 
Q 881 4594 1212 4672 
Q 1544 4750 1819 4750 
Q 2544 4750 2975 4387 
Q 3406 4025 3406 3419 
Q 3406 3131 3298 2873 
Q 3191 2616 2906 2266 
Q 2828 2175 2409 1742 
Q 1991 1309 1228 531 
z
" transform="scale(0.015625)"/>
       </defs>
       <use xlink:href="#DejaVuSans-2212"/>
       <use xlink:href="#DejaVuSans-32" x="83.789062"/>
      </g>
     </g>
    </g>
    <g id="xtick_4">
     <g id="line2d_7">
      <path d="M 219.465385 246.04 
L 219.465385 58.56 
" clip-path="url(#p05b19f3413)" style="fill: none; stroke: #b0b0b0; stroke-width: 0.8; stroke-linecap: square"/>
     </g>
     <g id="line2d_8">
      <g>
       <use xlink:href="#m12c9f103fe" x="219.465385" y="246.04" style="stroke: #000000; stroke-width: 0.8"/>
      </g>
     </g>
     <g id="text_4">
      <!-- 0 -->
      <g transform="translate(216.284135 260.638438) scale(0.1 -0.1)">
       <defs>
        <path id="DejaVuSans-30" d="M 2034 4250 
Q 1547 4250 1301 3770 
Q 1056 3291 1056 2328 
Q 1056 1369 1301 889 
Q 1547 409 2034 409 
Q 2525 409 2770 889 
Q 3016 1369 3016 2328 
Q 3016 3291 2770 3770 
Q 2525 4250 2034 4250 
z
M 2034 4750 
Q 2819 4750 3233 4129 
Q 3647 3509 3647 2328 
Q 3647 1150 3233 529 
Q 2819 -91 2034 -91 
Q 1250 -91 836 529 
Q 422 1150 422 2328 
Q 422 3509 836 4129 
Q 1250 4750 2034 4750 
z
" transform="scale(0.015625)"/>
       </defs>
       <use xlink:href="#DejaVuSans-30"/>
      </g>
     </g>
    </g>
    <g id="xtick_5">
     <g id="line2d_9">
      <path d="M 277.103846 246.04 
L 277.103846 58.56 
" clip-path="url(#p05b19f3413)" style="fill: none; stroke: #b0b0b0; stroke-width: 0.8; stroke-linecap: square"/>
     </g>
     <g id="line2d_10">
      <g>
       <use xlink:href="#m12c9f103fe" x="277.103846" y="246.04" style="stroke: #000000; stroke-width: 0.8"/>
      </g>
     </g>
     <g id="text_5">
      <!-- 2 -->
      <g transform="translate(273.922596 260.638438) scale(0.1 -0.1)">
       <use xlink:href="#DejaVuSans-32"/>
      </g>
     </g>
    </g>
    <g id="xtick_6">
     <g id="line2d_11">
      <path d="M 334.742308 246.04 
L 334.742308 58.56 
" clip-path="url(#p05b19f3413)" style="fill: none; stroke: #b0b0b0; stroke-width: 0.8; stroke-linecap: square"/>
     </g>
     <g id="line2d_12">
      <g>
       <use xlink:href="#m12c9f103fe" x="334.742308" y="246.04" style="stroke: #000000; stroke-width: 0.8"/>
      </g>
     </g>
     <g id="text_6">
      <!-- 4 -->
      <g transform="translate(331.561058 260.638438) scale(0.1 -0.1)">
       <use xlink:href="#DejaVuSans-34"/>
      </g>
     </g>
    </g>
    <g id="xtick_7">
     <g id="line2d_13">
      <path d="M 392.380769 246.04 
L 392.380769 58.56 
" clip-path="url(#p05b19f3413)" style="fill: none; stroke: #b0b0b0; stroke-width: 0.8; stroke-linecap: square"/>
     </g>
     <g id="line2d_14">
      <g>
       <use xlink:href="#m12c9f103fe" x="392.380769" y="246.04" style="stroke: #000000; stroke-width: 0.8"/>
      </g>
     </g>
     <g id="text_7">
      <!-- 6 -->
      <g transform="translate(389.199519 260.638438) scale(0.1 -0.1)">
       <use xlink:href="#DejaVuSans-36"/>
      </g>
     </g>
    </g>
    <g id="text_8">
     <!-- x -->
     <g transform="translate(230.915625 274.316562) scale(0.1 -0.1)">
      <defs>
       <path id="DejaVuSans-78" d="M 3513 3500 
L 2247 1797 
L 3578 0 
L 2900 0 
L 1881 1375 
L 863 0 
L 184 0 
L 1544 1831 
L 300 3500 
L 978 3500 
L 1906 2253 
L 2834 3500 
L 3513 3500 
z
" transform="scale(0.015625)"/>
      </defs>
      <use xlink:href="#DejaVuSans-78"/>
     </g>
    </g>
   </g>
   <g id="matplotlib.axis_2">
    <g id="ytick_1">
     <g id="line2d_15">
      <path d="M 46.55 218.68317 
L 421.2 218.68317 
" clip-path="url(#p05b19f3413)" style="fill: none; stroke: #b0b0b0; stroke-width: 0.8; stroke-linecap: square"/>
     </g>
     <g id="line2d_16">
      <defs>
       <path id="mc9761e14b6" d="M 0 0 
L -3.5 0 
" style="stroke: #000000; stroke-width: 0.8"/>
      </defs>
      <g>
       <use xlink:href="#mc9761e14b6" x="46.55" y="218.68317" style="stroke: #000000; stroke-width: 0.8"/>
      </g>
     </g>
     <g id="text_9">
      <!-- −5 -->
      <g transform="translate(24.807813 222.482388) scale(0.1 -0.1)">
       <defs>
        <path id="DejaVuSans-35" d="M 691 4666 
L 3169 4666 
L 3169 4134 
L 1269 4134 
L 1269 2991 
Q 1406 3038 1543 3061 
Q 1681 3084 1819 3084 
Q 2600 3084 3056 2656 
Q 3513 2228 3513 1497 
Q 3513 744 3044 326 
Q 2575 -91 1722 -91 
Q 1428 -91 1123 -41 
Q 819 9 494 109 
L 494 744 
Q 775 591 1075 516 
Q 1375 441 1709 441 
Q 2250 441 2565 725 
Q 2881 1009 2881 1497 
Q 2881 1984 2565 2268 
Q 2250 2553 1709 2553 
Q 1456 2553 1204 2497 
Q 953 2441 691 2322 
L 691 4666 
z
" transform="scale(0.015625)"/>
       </defs>
       <use xlink:href="#DejaVuSans-2212"/>
       <use xlink:href="#DejaVuSans-35" x="83.789062"/>
      </g>
     </g>
    </g>
    <g id="ytick_2">
     <g id="line2d_17">
      <path d="M 46.55 180.802727 
L 421.2 180.802727 
" clip-path="url(#p05b19f3413)" style="fill: none; stroke: #b0b0b0; stroke-width: 0.8; stroke-linecap: square"/>
     </g>
     <g id="line2d_18">
      <g>
       <use xlink:href="#mc9761e14b6" x="46.55" y="180.802727" style="stroke: #000000; stroke-width: 0.8"/>
      </g>
     </g>
     <g id="text_10">
      <!-- 0 -->
      <g transform="translate(33.1875 184.601946) scale(0.1 -0.1)">
       <use xlink:href="#DejaVuSans-30"/>
      </g>
     </g>
    </g>
    <g id="ytick_3">
     <g id="line2d_19">
      <path d="M 46.55 142.922285 
L 421.2 142.922285 
" clip-path="url(#p05b19f3413)" style="fill: none; stroke: #b0b0b0; stroke-width: 0.8; stroke-linecap: square"/>
     </g>
     <g id="line2d_20">
      <g>
       <use xlink:href="#mc9761e14b6" x="46.55" y="142.922285" style="stroke: #000000; stroke-width: 0.8"/>
      </g>
     </g>
     <g id="text_11">
      <!-- 5 -->
      <g transform="translate(33.1875 146.721504) scale(0.1 -0.1)">
       <use xlink:href="#DejaVuSans-35"/>
      </g>
     </g>
    </g>
    <g id="ytick_4">
     <g id="line2d_21">
      <path d="M 46.55 105.041843 
L 421.2 105.041843 
" clip-path="url(#p05b19f3413)" style="fill: none; stroke: #b0b0b0; stroke-width: 0.8; stroke-linecap: square"/>
     </g>
     <g id="line2d_22">
      <g>
       <use xlink:href="#mc9761e14b6" x="46.55" y="105.041843" style="stroke: #000000; stroke-width: 0.8"/>
      </g>
     </g>
     <g id="text_12">
      <!-- 10 -->
      <g transform="translate(26.825 108.841062) scale(0.1 -0.1)">
       <defs>
        <path id="DejaVuSans-31" d="M 794 531 
L 1825 531 
L 1825 4091 
L 703 3866 
L 703 4441 
L 1819 4666 
L 2450 4666 
L 2450 531 
L 3481 531 
L 3481 0 
L 794 0 
L 794 531 
z
" transform="scale(0.015625)"/>
       </defs>
       <use xlink:href="#DejaVuSans-31"/>
       <use xlink:href="#DejaVuSans-30" x="63.623047"/>
      </g>
     </g>
    </g>
    <g id="ytick_5">
     <g id="line2d_23">
      <path d="M 46.55 67.161401 
L 421.2 67.161401 
" clip-path="url(#p05b19f3413)" style="fill: none; stroke: #b0b0b0; stroke-width: 0.8; stroke-linecap: square"/>
     </g>
     <g id="line2d_24">
      <g>
       <use xlink:href="#mc9761e14b6" x="46.55" y="67.161401" style="stroke: #000000; stroke-width: 0.8"/>
      </g>
     </g>
     <g id="text_13">
      <!-- 15 -->
      <g transform="translate(26.825 70.960619) scale(0.1 -0.1)">
       <use xlink:href="#DejaVuSans-31"/>
       <use xlink:href="#DejaVuSans-35" x="63.623047"/>
      </g>
     </g>
    </g>
    <g id="text_14">
     <!-- y -->
     <g transform="translate(18.728125 155.259375) rotate(-90) scale(0.1 -0.1)">
      <defs>
       <path id="DejaVuSans-79" d="M 2059 -325 
Q 1816 -950 1584 -1140 
Q 1353 -1331 966 -1331 
L 506 -1331 
L 506 -850 
L 844 -850 
Q 1081 -850 1212 -737 
Q 1344 -625 1503 -206 
L 1606 56 
L 191 3500 
L 800 3500 
L 1894 763 
L 2988 3500 
L 3597 3500 
L 2059 -325 
z
" transform="scale(0.015625)"/>
      </defs>
      <use xlink:href="#DejaVuSans-79"/>
     </g>
    </g>
   </g>
   <g id="line2d_25">
    <path d="M 53.165525 289 
L 56.675676 267.063168 
L 60.050901 247.254118 
L 63.426126 228.672208 
L 66.801351 211.287323 
L 70.176577 195.069348 
L 73.551802 179.988166 
L 76.927027 166.013664 
L 79.927227 154.496601 
L 82.927427 143.809006 
L 85.927628 133.929727 
L 88.927828 124.837612 
L 91.928028 116.511511 
L 94.553203 109.837916 
L 97.178378 103.720438 
L 99.803554 98.144905 
L 102.428729 93.09715 
L 105.053904 88.563002 
L 107.304054 85.074639 
L 109.554204 81.944286 
L 111.804354 79.163022 
L 114.054505 76.721922 
L 116.304655 74.612064 
L 118.554805 72.824524 
L 120.804955 71.35038 
L 123.055105 70.180709 
L 124.93023 69.432128 
L 126.805355 68.883626 
L 128.68048 68.530039 
L 130.555606 68.366203 
L 132.805756 68.412801 
L 135.055906 68.716282 
L 137.306056 69.267722 
L 139.556206 70.058198 
L 141.806356 71.078788 
L 144.056507 72.320569 
L 146.681682 74.036968 
L 149.306857 76.028117 
L 151.932032 78.279847 
L 154.932232 81.154153 
L 157.932432 84.329151 
L 161.307658 88.234108 
L 165.057908 92.951264 
L 168.808158 98.026712 
L 172.933433 103.974229 
L 177.808759 111.422417 
L 183.434134 120.468153 
L 190.184585 131.773701 
L 214.561211 173.052239 
L 219.811562 181.297211 
L 224.311862 187.986671 
L 228.437137 193.747984 
L 232.187387 198.630137 
L 235.562613 202.699354 
L 238.937838 206.429711 
L 241.938038 209.436762 
L 244.938238 212.131125 
L 247.563413 214.215564 
L 250.188589 216.030237 
L 252.813764 217.560977 
L 255.063914 218.63631 
L 257.314064 219.483704 
L 259.564214 220.094238 
L 261.814364 220.458987 
L 264.064515 220.569029 
L 265.93964 220.459724 
L 267.814765 220.162179 
L 269.68989 219.67123 
L 271.565015 218.981713 
L 273.44014 218.088463 
L 275.315265 216.986318 
L 277.565415 215.38073 
L 279.815566 213.457973 
L 282.065716 211.209124 
L 284.315866 208.62526 
L 286.566016 205.697458 
L 288.816166 202.416794 
L 291.066316 198.774346 
L 293.691491 194.055663 
L 296.316667 188.818237 
L 298.941842 183.047897 
L 301.567017 176.730475 
L 304.192192 169.851801 
L 306.817367 162.397705 
L 309.817568 153.155963 
L 312.817768 143.122991 
L 315.817968 132.27764 
L 318.818168 120.598757 
L 321.818368 108.065191 
L 324.818569 94.655792 
L 328.193794 78.496988 
L 331.569019 61.172822 
L 334.944244 42.653179 
L 338.319469 22.907945 
L 341.694695 1.907002 
L 342.146131 -1 
L 342.146131 -1 
" clip-path="url(#p05b19f3413)" style="fill: none; stroke: #a18262; stroke-width: 1.5; stroke-linecap: square"/>
   </g>
   <g id="line2d_26">
    <path d="M 161.826923 88.864354 
" clip-path="url(#p05b19f3413)" style="fill: none; stroke: #f7dc6f; stroke-width: 1.5; stroke-linecap: square"/>
    <defs>
     <path id="m75d71c5b17" d="M 0 3 
C 0.795609 3 1.55874 2.683901 2.12132 2.12132 
C 2.683901 1.55874 3 0.795609 3 0 
C 3 -0.795609 2.683901 -1.55874 2.12132 -2.12132 
C 1.55874 -2.683901 0.795609 -3 0 -3 
C -0.795609 -3 -1.55874 -2.683901 -2.12132 -2.12132 
C -2.683901 -1.55874 -3 -0.795609 -3 0 
C -3 0.795609 -2.683901 1.55874 -2.12132 2.12132 
C -1.55874 2.683901 -0.795609 3 0 3 
z
" style="stroke: #f7dc6f"/>
    </defs>
    <g clip-path="url(#p05b19f3413)">
     <use xlink:href="#m75d71c5b17" x="161.826923" y="88.864354" style="fill: #f7dc6f; stroke: #f7dc6f"/>
    </g>
   </g>
   <g id="line2d_27">
    <path d="M 190.646154 132.559109 
" clip-path="url(#p05b19f3413)" style="fill: none; stroke: #f7dc6f; stroke-width: 1.5; stroke-linecap: square"/>
    <g clip-path="url(#p05b19f3413)">
     <use xlink:href="#m75d71c5b17" x="190.646154" y="132.559109" style="fill: #f7dc6f; stroke: #f7dc6f"/>
    </g>
   </g>
   <g id="line2d_28">
    <path d="M 277.103846 215.735646 
" clip-path="url(#p05b19f3413)" style="fill: none; stroke: #f7dc6f; stroke-width: 1.5; stroke-linecap: square"/>
    <g clip-path="url(#p05b19f3413)">
     <use xlink:href="#m75d71c5b17" x="277.103846" y="215.735646" style="fill: #f7dc6f; stroke: #f7dc6f"/>
    </g>
   </g>
   <g id="line2d_29">
    <path d="M 305.923077 165.002515 
" clip-path="url(#p05b19f3413)" style="fill: none; stroke: #f7dc6f; stroke-width: 1.5; stroke-linecap: square"/>
    <g clip-path="url(#p05b19f3413)">
     <use xlink:href="#m75d71c5b17" x="305.923077" y="165.002515" style="fill: #f7dc6f; stroke: #f7dc6f"/>
    </g>
   </g>
   <g id="line2d_30">
    <path d="M 46.55 180.802727 
L 421.2 180.802727 
" clip-path="url(#p05b19f3413)" style="fill: none; stroke-dasharray: 3.7,1.6; stroke-dashoffset: 0; stroke: #ff0000"/>
   </g>
   <g id="line2d_31">
    <path d="M 219.465385 246.04 
L 219.465385 58.56 
" clip-path="url(#p05b19f3413)" style="fill: none; stroke-dasharray: 3.7,1.6; stroke-dashoffset: 0; stroke: #ff0000"/>
   </g>
   <g id="patch_3">
    <path d="M 46.55 246.04 
L 46.55 58.56 
" style="fill: none; stroke: #000000; stroke-width: 0.8; stroke-linejoin: miter; stroke-linecap: square"/>
   </g>
   <g id="patch_4">
    <path d="M 421.2 246.04 
L 421.2 58.56 
" style="fill: none; stroke: #000000; stroke-width: 0.8; stroke-linejoin: miter; stroke-linecap: square"/>
   </g>
   <g id="patch_5">
    <path d="M 46.55 246.04 
L 421.2 246.04 
" style="fill: none; stroke: #000000; stroke-width: 0.8; stroke-linejoin: miter; stroke-linecap: square"/>
   </g>
   <g id="patch_6">
    <path d="M 46.55 58.56 
L 421.2 58.56 
" style="fill: none; stroke: #000000; stroke-width: 0.8; stroke-linejoin: miter; stroke-linecap: square"/>
   </g>
   <g id="text_15">
    <!-- (-2.0, 12.13533528) -->
    <g transform="translate(161.826923 86.992635) scale(0.09 -0.09)">
     <defs>
      <path id="DejaVuSans-28" d="M 1984 4856 
Q 1566 4138 1362 3434 
Q 1159 2731 1159 2009 
Q 1159 1288 1364 580 
Q 1569 -128 1984 -844 
L 1484 -844 
Q 1016 -109 783 600 
Q 550 1309 550 2009 
Q 550 2706 781 3412 
Q 1013 4119 1484 4856 
L 1984 4856 
z
" transform="scale(0.015625)"/>
      <path id="DejaVuSans-2d" d="M 313 2009 
L 1997 2009 
L 1997 1497 
L 313 1497 
L 313 2009 
z
" transform="scale(0.015625)"/>
      <path id="DejaVuSans-2e" d="M 684 794 
L 1344 794 
L 1344 0 
L 684 0 
L 684 794 
z
" transform="scale(0.015625)"/>
      <path id="DejaVuSans-2c" d="M 750 794 
L 1409 794 
L 1409 256 
L 897 -744 
L 494 -744 
L 750 256 
L 750 794 
z
" transform="scale(0.015625)"/>
      <path id="DejaVuSans-20" transform="scale(0.015625)"/>
      <path id="DejaVuSans-33" d="M 2597 2516 
Q 3050 2419 3304 2112 
Q 3559 1806 3559 1356 
Q 3559 666 3084 287 
Q 2609 -91 1734 -91 
Q 1441 -91 1130 -33 
Q 819 25 488 141 
L 488 750 
Q 750 597 1062 519 
Q 1375 441 1716 441 
Q 2309 441 2620 675 
Q 2931 909 2931 1356 
Q 2931 1769 2642 2001 
Q 2353 2234 1838 2234 
L 1294 2234 
L 1294 2753 
L 1863 2753 
Q 2328 2753 2575 2939 
Q 2822 3125 2822 3475 
Q 2822 3834 2567 4026 
Q 2313 4219 1838 4219 
Q 1578 4219 1281 4162 
Q 984 4106 628 3988 
L 628 4550 
Q 988 4650 1302 4700 
Q 1616 4750 1894 4750 
Q 2613 4750 3031 4423 
Q 3450 4097 3450 3541 
Q 3450 3153 3228 2886 
Q 3006 2619 2597 2516 
z
" transform="scale(0.015625)"/>
      <path id="DejaVuSans-38" d="M 2034 2216 
Q 1584 2216 1326 1975 
Q 1069 1734 1069 1313 
Q 1069 891 1326 650 
Q 1584 409 2034 409 
Q 2484 409 2743 651 
Q 3003 894 3003 1313 
Q 3003 1734 2745 1975 
Q 2488 2216 2034 2216 
z
M 1403 2484 
Q 997 2584 770 2862 
Q 544 3141 544 3541 
Q 544 4100 942 4425 
Q 1341 4750 2034 4750 
Q 2731 4750 3128 4425 
Q 3525 4100 3525 3541 
Q 3525 3141 3298 2862 
Q 3072 2584 2669 2484 
Q 3125 2378 3379 2068 
Q 3634 1759 3634 1313 
Q 3634 634 3220 271 
Q 2806 -91 2034 -91 
Q 1263 -91 848 271 
Q 434 634 434 1313 
Q 434 1759 690 2068 
Q 947 2378 1403 2484 
z
M 1172 3481 
Q 1172 3119 1398 2916 
Q 1625 2713 2034 2713 
Q 2441 2713 2670 2916 
Q 2900 3119 2900 3481 
Q 2900 3844 2670 4047 
Q 2441 4250 2034 4250 
Q 1625 4250 1398 4047 
Q 1172 3844 1172 3481 
z
" transform="scale(0.015625)"/>
      <path id="DejaVuSans-29" d="M 513 4856 
L 1013 4856 
Q 1481 4119 1714 3412 
Q 1947 2706 1947 2009 
Q 1947 1309 1714 600 
Q 1481 -109 1013 -844 
L 513 -844 
Q 928 -128 1133 580 
Q 1338 1288 1338 2009 
Q 1338 2731 1133 3434 
Q 928 4138 513 4856 
z
" transform="scale(0.015625)"/>
     </defs>
     <use xlink:href="#DejaVuSans-28"/>
     <use xlink:href="#DejaVuSans-2d" x="39.013672"/>
     <use xlink:href="#DejaVuSans-32" x="75.097656"/>
     <use xlink:href="#DejaVuSans-2e" x="138.720703"/>
     <use xlink:href="#DejaVuSans-30" x="170.507812"/>
     <use xlink:href="#DejaVuSans-2c" x="234.130859"/>
     <use xlink:href="#DejaVuSans-20" x="265.917969"/>
     <use xlink:href="#DejaVuSans-31" x="297.705078"/>
     <use xlink:href="#DejaVuSans-32" x="361.328125"/>
     <use xlink:href="#DejaVuSans-2e" x="424.951172"/>
     <use xlink:href="#DejaVuSans-31" x="456.738281"/>
     <use xlink:href="#DejaVuSans-33" x="520.361328"/>
     <use xlink:href="#DejaVuSans-35" x="583.984375"/>
     <use xlink:href="#DejaVuSans-33" x="647.607422"/>
     <use xlink:href="#DejaVuSans-33" x="711.230469"/>
     <use xlink:href="#DejaVuSans-35" x="774.853516"/>
     <use xlink:href="#DejaVuSans-32" x="838.476562"/>
     <use xlink:href="#DejaVuSans-38" x="902.099609"/>
     <use xlink:href="#DejaVuSans-29" x="965.722656"/>
    </g>
   </g>
   <g id="text_16">
    <!-- (-1.0, 6.367879441) -->
    <g transform="translate(190.646154 130.687391) scale(0.09 -0.09)">
     <defs>
      <path id="DejaVuSans-37" d="M 525 4666 
L 3525 4666 
L 3525 4397 
L 1831 0 
L 1172 0 
L 2766 4134 
L 525 4134 
L 525 4666 
z
" transform="scale(0.015625)"/>
      <path id="DejaVuSans-39" d="M 703 97 
L 703 672 
Q 941 559 1184 500 
Q 1428 441 1663 441 
Q 2288 441 2617 861 
Q 2947 1281 2994 2138 
Q 2813 1869 2534 1725 
Q 2256 1581 1919 1581 
Q 1219 1581 811 2004 
Q 403 2428 403 3163 
Q 403 3881 828 4315 
Q 1253 4750 1959 4750 
Q 2769 4750 3195 4129 
Q 3622 3509 3622 2328 
Q 3622 1225 3098 567 
Q 2575 -91 1691 -91 
Q 1453 -91 1209 -44 
Q 966 3 703 97 
z
M 1959 2075 
Q 2384 2075 2632 2365 
Q 2881 2656 2881 3163 
Q 2881 3666 2632 3958 
Q 2384 4250 1959 4250 
Q 1534 4250 1286 3958 
Q 1038 3666 1038 3163 
Q 1038 2656 1286 2365 
Q 1534 2075 1959 2075 
z
" transform="scale(0.015625)"/>
     </defs>
     <use xlink:href="#DejaVuSans-28"/>
     <use xlink:href="#DejaVuSans-2d" x="39.013672"/>
     <use xlink:href="#DejaVuSans-31" x="75.097656"/>
     <use xlink:href="#DejaVuSans-2e" x="138.720703"/>
     <use xlink:href="#DejaVuSans-30" x="170.507812"/>
     <use xlink:href="#DejaVuSans-2c" x="234.130859"/>
     <use xlink:href="#DejaVuSans-20" x="265.917969"/>
     <use xlink:href="#DejaVuSans-36" x="297.705078"/>
     <use xlink:href="#DejaVuSans-2e" x="361.328125"/>
     <use xlink:href="#DejaVuSans-33" x="393.115234"/>
     <use xlink:href="#DejaVuSans-36" x="456.738281"/>
     <use xlink:href="#DejaVuSans-37" x="520.361328"/>
     <use xlink:href="#DejaVuSans-38" x="583.984375"/>
     <use xlink:href="#DejaVuSans-37" x="647.607422"/>
     <use xlink:href="#DejaVuSans-39" x="711.230469"/>
     <use xlink:href="#DejaVuSans-34" x="774.853516"/>
     <use xlink:href="#DejaVuSans-34" x="838.476562"/>
     <use xlink:href="#DejaVuSans-31" x="902.099609"/>
     <use xlink:href="#DejaVuSans-29" x="965.722656"/>
    </g>
   </g>
   <g id="text_17">
    <!-- (2.0, -4.610943901) -->
    <g transform="translate(277.103846 213.863927) scale(0.09 -0.09)">
     <use xlink:href="#DejaVuSans-28"/>
     <use xlink:href="#DejaVuSans-32" x="39.013672"/>
     <use xlink:href="#DejaVuSans-2e" x="102.636719"/>
     <use xlink:href="#DejaVuSans-30" x="134.423828"/>
     <use xlink:href="#DejaVuSans-2c" x="198.046875"/>
     <use xlink:href="#DejaVuSans-20" x="229.833984"/>
     <use xlink:href="#DejaVuSans-2d" x="261.621094"/>
     <use xlink:href="#DejaVuSans-34" x="297.705078"/>
     <use xlink:href="#DejaVuSans-2e" x="361.328125"/>
     <use xlink:href="#DejaVuSans-36" x="393.115234"/>
     <use xlink:href="#DejaVuSans-31" x="456.738281"/>
     <use xlink:href="#DejaVuSans-30" x="520.361328"/>
     <use xlink:href="#DejaVuSans-39" x="583.984375"/>
     <use xlink:href="#DejaVuSans-34" x="647.607422"/>
     <use xlink:href="#DejaVuSans-33" x="711.230469"/>
     <use xlink:href="#DejaVuSans-39" x="774.853516"/>
     <use xlink:href="#DejaVuSans-30" x="838.476562"/>
     <use xlink:href="#DejaVuSans-31" x="902.099609"/>
     <use xlink:href="#DejaVuSans-29" x="965.722656"/>
    </g>
   </g>
   <g id="text_18">
    <!-- (3.0, 2.085536923) -->
    <g transform="translate(305.923077 163.130796) scale(0.09 -0.09)">
     <use xlink:href="#DejaVuSans-28"/>
     <use xlink:href="#DejaVuSans-33" x="39.013672"/>
     <use xlink:href="#DejaVuSans-2e" x="102.636719"/>
     <use xlink:href="#DejaVuSans-30" x="134.423828"/>
     <use xlink:href="#DejaVuSans-2c" x="198.046875"/>
     <use xlink:href="#DejaVuSans-20" x="229.833984"/>
     <use xlink:href="#DejaVuSans-32" x="261.621094"/>
     <use xlink:href="#DejaVuSans-2e" x="325.244141"/>
     <use xlink:href="#DejaVuSans-30" x="357.03125"/>
     <use xlink:href="#DejaVuSans-38" x="420.654297"/>
     <use xlink:href="#DejaVuSans-35" x="484.277344"/>
     <use xlink:href="#DejaVuSans-35" x="547.900391"/>
     <use xlink:href="#DejaVuSans-33" x="611.523438"/>
     <use xlink:href="#DejaVuSans-36" x="675.146484"/>
     <use xlink:href="#DejaVuSans-39" x="738.769531"/>
     <use xlink:href="#DejaVuSans-32" x="802.392578"/>
     <use xlink:href="#DejaVuSans-33" x="866.015625"/>
     <use xlink:href="#DejaVuSans-29" x="929.638672"/>
    </g>
   </g>
   <g id="text_19">
    <!-- f(x) = +0.4124120273166667*x**3 +0.9393740418999997*x**2 -->
    <g transform="translate(69.295312 22.614187) scale(0.1 -0.1)">
     <defs>
      <path id="DejaVuSans-66" d="M 2375 4863 
L 2375 4384 
L 1825 4384 
Q 1516 4384 1395 4259 
Q 1275 4134 1275 3809 
L 1275 3500 
L 2222 3500 
L 2222 3053 
L 1275 3053 
L 1275 0 
L 697 0 
L 697 3053 
L 147 3053 
L 147 3500 
L 697 3500 
L 697 3744 
Q 697 4328 969 4595 
Q 1241 4863 1831 4863 
L 2375 4863 
z
" transform="scale(0.015625)"/>
      <path id="DejaVuSans-3d" d="M 678 2906 
L 4684 2906 
L 4684 2381 
L 678 2381 
L 678 2906 
z
M 678 1631 
L 4684 1631 
L 4684 1100 
L 678 1100 
L 678 1631 
z
" transform="scale(0.015625)"/>
      <path id="DejaVuSans-2b" d="M 2944 4013 
L 2944 2272 
L 4684 2272 
L 4684 1741 
L 2944 1741 
L 2944 0 
L 2419 0 
L 2419 1741 
L 678 1741 
L 678 2272 
L 2419 2272 
L 2419 4013 
L 2944 4013 
z
" transform="scale(0.015625)"/>
      <path id="DejaVuSans-2a" d="M 3009 3897 
L 1888 3291 
L 3009 2681 
L 2828 2375 
L 1778 3009 
L 1778 1831 
L 1422 1831 
L 1422 3009 
L 372 2375 
L 191 2681 
L 1313 3291 
L 191 3897 
L 372 4206 
L 1422 3572 
L 1422 4750 
L 1778 4750 
L 1778 3572 
L 2828 4206 
L 3009 3897 
z
" transform="scale(0.015625)"/>
     </defs>
     <use xlink:href="#DejaVuSans-66"/>
     <use xlink:href="#DejaVuSans-28" x="35.205078"/>
     <use xlink:href="#DejaVuSans-78" x="74.21875"/>
     <use xlink:href="#DejaVuSans-29" x="133.398438"/>
     <use xlink:href="#DejaVuSans-20" x="172.412109"/>
     <use xlink:href="#DejaVuSans-3d" x="204.199219"/>
     <use xlink:href="#DejaVuSans-20" x="287.988281"/>
     <use xlink:href="#DejaVuSans-2b" x="319.775391"/>
     <use xlink:href="#DejaVuSans-30" x="403.564453"/>
     <use xlink:href="#DejaVuSans-2e" x="467.1875"/>
     <use xlink:href="#DejaVuSans-34" x="498.974609"/>
     <use xlink:href="#DejaVuSans-31" x="562.597656"/>
     <use xlink:href="#DejaVuSans-32" x="626.220703"/>
     <use xlink:href="#DejaVuSans-34" x="689.84375"/>
     <use xlink:href="#DejaVuSans-31" x="753.466797"/>
     <use xlink:href="#DejaVuSans-32" x="817.089844"/>
     <use xlink:href="#DejaVuSans-30" x="880.712891"/>
     <use xlink:href="#DejaVuSans-32" x="944.335938"/>
     <use xlink:href="#DejaVuSans-37" x="1007.958984"/>
     <use xlink:href="#DejaVuSans-33" x="1071.582031"/>
     <use xlink:href="#DejaVuSans-31" x="1135.205078"/>
     <use xlink:href="#DejaVuSans-36" x="1198.828125"/>
     <use xlink:href="#DejaVuSans-36" x="1262.451172"/>
     <use xlink:href="#DejaVuSans-36" x="1326.074219"/>
     <use xlink:href="#DejaVuSans-36" x="1389.697266"/>
     <use xlink:href="#DejaVuSans-37" x="1453.320312"/>
     <use xlink:href="#DejaVuSans-2a" x="1516.943359"/>
     <use xlink:href="#DejaVuSans-78" x="1566.943359"/>
     <use xlink:href="#DejaVuSans-2a" x="1626.123047"/>
     <use xlink:href="#DejaVuSans-2a" x="1676.123047"/>
     <use xlink:href="#DejaVuSans-33" x="1726.123047"/>
     <use xlink:href="#DejaVuSans-20" x="1789.746094"/>
     <use xlink:href="#DejaVuSans-2b" x="1821.533203"/>
     <use xlink:href="#DejaVuSans-30" x="1905.322266"/>
     <use xlink:href="#DejaVuSans-2e" x="1968.945312"/>
     <use xlink:href="#DejaVuSans-39" x="2000.732422"/>
     <use xlink:href="#DejaVuSans-33" x="2064.355469"/>
     <use xlink:href="#DejaVuSans-39" x="2127.978516"/>
     <use xlink:href="#DejaVuSans-33" x="2191.601562"/>
     <use xlink:href="#DejaVuSans-37" x="2255.224609"/>
     <use xlink:href="#DejaVuSans-34" x="2318.847656"/>
     <use xlink:href="#DejaVuSans-30" x="2382.470703"/>
     <use xlink:href="#DejaVuSans-34" x="2446.09375"/>
     <use xlink:href="#DejaVuSans-31" x="2509.716797"/>
     <use xlink:href="#DejaVuSans-38" x="2573.339844"/>
     <use xlink:href="#DejaVuSans-39" x="2636.962891"/>
     <use xlink:href="#DejaVuSans-39" x="2700.585938"/>
     <use xlink:href="#DejaVuSans-39" x="2764.208984"/>
     <use xlink:href="#DejaVuSans-39" x="2827.832031"/>
     <use xlink:href="#DejaVuSans-39" x="2891.455078"/>
     <use xlink:href="#DejaVuSans-37" x="2955.078125"/>
     <use xlink:href="#DejaVuSans-2a" x="3018.701172"/>
     <use xlink:href="#DejaVuSans-78" x="3068.701172"/>
     <use xlink:href="#DejaVuSans-2a" x="3127.880859"/>
     <use xlink:href="#DejaVuSans-2a" x="3177.880859"/>
     <use xlink:href="#DejaVuSans-32" x="3227.880859"/>
    </g>
    <!-- -5.836217904516667*x**1 +0.004699521900000558 -->
    <g transform="translate(98.129687 33.812) scale(0.1 -0.1)">
     <use xlink:href="#DejaVuSans-2d"/>
     <use xlink:href="#DejaVuSans-35" x="36.083984"/>
     <use xlink:href="#DejaVuSans-2e" x="99.707031"/>
     <use xlink:href="#DejaVuSans-38" x="131.494141"/>
     <use xlink:href="#DejaVuSans-33" x="195.117188"/>
     <use xlink:href="#DejaVuSans-36" x="258.740234"/>
     <use xlink:href="#DejaVuSans-32" x="322.363281"/>
     <use xlink:href="#DejaVuSans-31" x="385.986328"/>
     <use xlink:href="#DejaVuSans-37" x="449.609375"/>
     <use xlink:href="#DejaVuSans-39" x="513.232422"/>
     <use xlink:href="#DejaVuSans-30" x="576.855469"/>
     <use xlink:href="#DejaVuSans-34" x="640.478516"/>
     <use xlink:href="#DejaVuSans-35" x="704.101562"/>
     <use xlink:href="#DejaVuSans-31" x="767.724609"/>
     <use xlink:href="#DejaVuSans-36" x="831.347656"/>
     <use xlink:href="#DejaVuSans-36" x="894.970703"/>
     <use xlink:href="#DejaVuSans-36" x="958.59375"/>
     <use xlink:href="#DejaVuSans-37" x="1022.216797"/>
     <use xlink:href="#DejaVuSans-2a" x="1085.839844"/>
     <use xlink:href="#DejaVuSans-78" x="1135.839844"/>
     <use xlink:href="#DejaVuSans-2a" x="1195.019531"/>
     <use xlink:href="#DejaVuSans-2a" x="1245.019531"/>
     <use xlink:href="#DejaVuSans-31" x="1295.019531"/>
     <use xlink:href="#DejaVuSans-20" x="1358.642578"/>
     <use xlink:href="#DejaVuSans-2b" x="1390.429688"/>
     <use xlink:href="#DejaVuSans-30" x="1474.21875"/>
     <use xlink:href="#DejaVuSans-2e" x="1537.841797"/>
     <use xlink:href="#DejaVuSans-30" x="1569.628906"/>
     <use xlink:href="#DejaVuSans-30" x="1633.251953"/>
     <use xlink:href="#DejaVuSans-34" x="1696.875"/>
     <use xlink:href="#DejaVuSans-36" x="1760.498047"/>
     <use xlink:href="#DejaVuSans-39" x="1824.121094"/>
     <use xlink:href="#DejaVuSans-39" x="1887.744141"/>
     <use xlink:href="#DejaVuSans-35" x="1951.367188"/>
     <use xlink:href="#DejaVuSans-32" x="2014.990234"/>
     <use xlink:href="#DejaVuSans-31" x="2078.613281"/>
     <use xlink:href="#DejaVuSans-39" x="2142.236328"/>
     <use xlink:href="#DejaVuSans-30" x="2205.859375"/>
     <use xlink:href="#DejaVuSans-30" x="2269.482422"/>
     <use xlink:href="#DejaVuSans-30" x="2333.105469"/>
     <use xlink:href="#DejaVuSans-30" x="2396.728516"/>
     <use xlink:href="#DejaVuSans-30" x="2460.351562"/>
     <use xlink:href="#DejaVuSans-35" x="2523.974609"/>
     <use xlink:href="#DejaVuSans-35" x="2587.597656"/>
     <use xlink:href="#DejaVuSans-38" x="2651.220703"/>
    </g>
   </g>
   <g id="legend_1">
    <g id="patch_7">
     <path d="M 364.957812 81.238125 
L 414.2 81.238125 
Q 416.2 81.238125 416.2 79.238125 
L 416.2 65.56 
Q 416.2 63.56 414.2 63.56 
L 364.957812 63.56 
Q 362.957812 63.56 362.957812 65.56 
L 362.957812 79.238125 
Q 362.957812 81.238125 364.957812 81.238125 
z
" style="fill: #ffffff; opacity: 0.8; stroke: #cccccc; stroke-linejoin: miter"/>
    </g>
    <g id="line2d_32">
     <path d="M 366.957812 71.658437 
L 376.957812 71.658437 
L 386.957812 71.658437 
" style="fill: none; stroke: #a18262; stroke-width: 1.5; stroke-linecap: square"/>
    </g>
    <g id="text_20">
     <!-- f(x) -->
     <g transform="translate(394.957812 75.158437) scale(0.1 -0.1)">
      <use xlink:href="#DejaVuSans-66"/>
      <use xlink:href="#DejaVuSans-28" x="35.205078"/>
      <use xlink:href="#DejaVuSans-78" x="74.21875"/>
      <use xlink:href="#DejaVuSans-29" x="133.398438"/>
     </g>
    </g>
   </g>
  </g>
 </g>
 <defs>
  <clipPath id="p05b19f3413">
   <rect x="46.55" y="58.56" width="374.65" height="187.48"/>
  </clipPath>
 </defs>
</svg>
