<?xml version="1.0" encoding="utf-8" standalone="no"?>
<!DOCTYPE svg PUBLIC "-//W3C//DTD SVG 1.1//EN"
  "http://www.w3.org/Graphics/SVG/1.1/DTD/svg11.dtd">
<svg xmlns:xlink="http://www.w3.org/1999/xlink" width="432pt" height="288pt" viewBox="0 0 432 288" xmlns="http://www.w3.org/2000/svg" version="1.1">
 <metadata>
  <rdf:RDF xmlns:dc="http://purl.org/dc/elements/1.1/" xmlns:cc="http://creativecommons.org/ns#" xmlns:rdf="http://www.w3.org/1999/02/22-rdf-syntax-ns#">
   <cc:Work>
    <dc:type rdf:resource="http://purl.org/dc/dcmitype/StillImage"/>
    <dc:date>2024-11-17T22:12:30.633214</dc:date>
    <dc:format>image/svg+xml</dc:format>
    <dc:creator>
     <cc:Agent>
      <dc:title>Matplotlib v3.9.2, https://matplotlib.org/</dc:title>
     </cc:Agent>
    </dc:creator>
   </cc:Work>
  </rdf:RDF>
 </metadata>
 <defs>
  <style type="text/css">*{stroke-linejoin: round; stroke-linecap: butt}</style>
 </defs>
 <g id="figure_1">
  <g id="patch_1">
   <path d="M 0 288 
L 432 288 
L 432 0 
L 0 0 
z
" style="fill: #ffffff"/>
  </g>
  <g id="axes_1">
   <g id="patch_2">
    <path d="M 44.57 246.04 
L 421.2 246.04 
L 421.2 58.56 
L 44.57 58.56 
z
" style="fill: #ffffff"/>
   </g>
   <g id="matplotlib.axis_1">
    <g id="xtick_1">
     <g id="line2d_1">
      <path d="M 68.109375 246.04 
L 68.109375 58.56 
" clip-path="url(#p20b5f488e1)" style="fill: none; stroke: #b0b0b0; stroke-width: 0.8; stroke-linecap: square"/>
     </g>
     <g id="line2d_2">
      <defs>
       <path id="md4d898b170" d="M 0 0 
L 0 3.5 
" style="stroke: #000000; stroke-width: 0.8"/>
      </defs>
      <g>
       <use xlink:href="#md4d898b170" x="68.109375" y="246.04" style="stroke: #000000; stroke-width: 0.8"/>
      </g>
     </g>
     <g id="text_1">
      <!-- −2 -->
      <g transform="translate(60.738281 260.638438) scale(0.1 -0.1)">
       <defs>
        <path id="DejaVuSans-2212" d="M 678 2272 
L 4684 2272 
L 4684 1741 
L 678 1741 
L 678 2272 
z
" transform="scale(0.015625)"/>
        <path id="DejaVuSans-32" d="M 1228 531 
L 3431 531 
L 3431 0 
L 469 0 
L 469 531 
Q 828 903 1448 1529 
Q 2069 2156 2228 2338 
Q 2531 2678 2651 2914 
Q 2772 3150 2772 3378 
Q 2772 3750 2511 3984 
Q 2250 4219 1831 4219 
Q 1534 4219 1204 4116 
Q 875 4013 500 3803 
L 500 4441 
Q 881 4594 1212 4672 
Q 1544 4750 1819 4750 
Q 2544 4750 2975 4387 
Q 3406 4025 3406 3419 
Q 3406 3131 3298 2873 
Q 3191 2616 2906 2266 
Q 2828 2175 2409 1742 
Q 1991 1309 1228 531 
z
" transform="scale(0.015625)"/>
       </defs>
       <use xlink:href="#DejaVuSans-2212"/>
       <use xlink:href="#DejaVuSans-32" x="83.789062"/>
      </g>
     </g>
    </g>
    <g id="xtick_2">
     <g id="line2d_3">
      <path d="M 115.188125 246.04 
L 115.188125 58.56 
" clip-path="url(#p20b5f488e1)" style="fill: none; stroke: #b0b0b0; stroke-width: 0.8; stroke-linecap: square"/>
     </g>
     <g id="line2d_4">
      <g>
       <use xlink:href="#md4d898b170" x="115.188125" y="246.04" style="stroke: #000000; stroke-width: 0.8"/>
      </g>
     </g>
     <g id="text_2">
      <!-- 0 -->
      <g transform="translate(112.006875 260.638438) scale(0.1 -0.1)">
       <defs>
        <path id="DejaVuSans-30" d="M 2034 4250 
Q 1547 4250 1301 3770 
Q 1056 3291 1056 2328 
Q 1056 1369 1301 889 
Q 1547 409 2034 409 
Q 2525 409 2770 889 
Q 3016 1369 3016 2328 
Q 3016 3291 2770 3770 
Q 2525 4250 2034 4250 
z
M 2034 4750 
Q 2819 4750 3233 4129 
Q 3647 3509 3647 2328 
Q 3647 1150 3233 529 
Q 2819 -91 2034 -91 
Q 1250 -91 836 529 
Q 422 1150 422 2328 
Q 422 3509 836 4129 
Q 1250 4750 2034 4750 
z
" transform="scale(0.015625)"/>
       </defs>
       <use xlink:href="#DejaVuSans-30"/>
      </g>
     </g>
    </g>
    <g id="xtick_3">
     <g id="line2d_5">
      <path d="M 162.266875 246.04 
L 162.266875 58.56 
" clip-path="url(#p20b5f488e1)" style="fill: none; stroke: #b0b0b0; stroke-width: 0.8; stroke-linecap: square"/>
     </g>
     <g id="line2d_6">
      <g>
       <use xlink:href="#md4d898b170" x="162.266875" y="246.04" style="stroke: #000000; stroke-width: 0.8"/>
      </g>
     </g>
     <g id="text_3">
      <!-- 2 -->
      <g transform="translate(159.085625 260.638438) scale(0.1 -0.1)">
       <use xlink:href="#DejaVuSans-32"/>
      </g>
     </g>
    </g>
    <g id="xtick_4">
     <g id="line2d_7">
      <path d="M 209.345625 246.04 
L 209.345625 58.56 
" clip-path="url(#p20b5f488e1)" style="fill: none; stroke: #b0b0b0; stroke-width: 0.8; stroke-linecap: square"/>
     </g>
     <g id="line2d_8">
      <g>
       <use xlink:href="#md4d898b170" x="209.345625" y="246.04" style="stroke: #000000; stroke-width: 0.8"/>
      </g>
     </g>
     <g id="text_4">
      <!-- 4 -->
      <g transform="translate(206.164375 260.638438) scale(0.1 -0.1)">
       <defs>
        <path id="DejaVuSans-34" d="M 2419 4116 
L 825 1625 
L 2419 1625 
L 2419 4116 
z
M 2253 4666 
L 3047 4666 
L 3047 1625 
L 3713 1625 
L 3713 1100 
L 3047 1100 
L 3047 0 
L 2419 0 
L 2419 1100 
L 313 1100 
L 313 1709 
L 2253 4666 
z
" transform="scale(0.015625)"/>
       </defs>
       <use xlink:href="#DejaVuSans-34"/>
      </g>
     </g>
    </g>
    <g id="xtick_5">
     <g id="line2d_9">
      <path d="M 256.424375 246.04 
L 256.424375 58.56 
" clip-path="url(#p20b5f488e1)" style="fill: none; stroke: #b0b0b0; stroke-width: 0.8; stroke-linecap: square"/>
     </g>
     <g id="line2d_10">
      <g>
       <use xlink:href="#md4d898b170" x="256.424375" y="246.04" style="stroke: #000000; stroke-width: 0.8"/>
      </g>
     </g>
     <g id="text_5">
      <!-- 6 -->
      <g transform="translate(253.243125 260.638438) scale(0.1 -0.1)">
       <defs>
        <path id="DejaVuSans-36" d="M 2113 2584 
Q 1688 2584 1439 2293 
Q 1191 2003 1191 1497 
Q 1191 994 1439 701 
Q 1688 409 2113 409 
Q 2538 409 2786 701 
Q 3034 994 3034 1497 
Q 3034 2003 2786 2293 
Q 2538 2584 2113 2584 
z
M 3366 4563 
L 3366 3988 
Q 3128 4100 2886 4159 
Q 2644 4219 2406 4219 
Q 1781 4219 1451 3797 
Q 1122 3375 1075 2522 
Q 1259 2794 1537 2939 
Q 1816 3084 2150 3084 
Q 2853 3084 3261 2657 
Q 3669 2231 3669 1497 
Q 3669 778 3244 343 
Q 2819 -91 2113 -91 
Q 1303 -91 875 529 
Q 447 1150 447 2328 
Q 447 3434 972 4092 
Q 1497 4750 2381 4750 
Q 2619 4750 2861 4703 
Q 3103 4656 3366 4563 
z
" transform="scale(0.015625)"/>
       </defs>
       <use xlink:href="#DejaVuSans-36"/>
      </g>
     </g>
    </g>
    <g id="xtick_6">
     <g id="line2d_11">
      <path d="M 303.503125 246.04 
L 303.503125 58.56 
" clip-path="url(#p20b5f488e1)" style="fill: none; stroke: #b0b0b0; stroke-width: 0.8; stroke-linecap: square"/>
     </g>
     <g id="line2d_12">
      <g>
       <use xlink:href="#md4d898b170" x="303.503125" y="246.04" style="stroke: #000000; stroke-width: 0.8"/>
      </g>
     </g>
     <g id="text_6">
      <!-- 8 -->
      <g transform="translate(300.321875 260.638438) scale(0.1 -0.1)">
       <defs>
        <path id="DejaVuSans-38" d="M 2034 2216 
Q 1584 2216 1326 1975 
Q 1069 1734 1069 1313 
Q 1069 891 1326 650 
Q 1584 409 2034 409 
Q 2484 409 2743 651 
Q 3003 894 3003 1313 
Q 3003 1734 2745 1975 
Q 2488 2216 2034 2216 
z
M 1403 2484 
Q 997 2584 770 2862 
Q 544 3141 544 3541 
Q 544 4100 942 4425 
Q 1341 4750 2034 4750 
Q 2731 4750 3128 4425 
Q 3525 4100 3525 3541 
Q 3525 3141 3298 2862 
Q 3072 2584 2669 2484 
Q 3125 2378 3379 2068 
Q 3634 1759 3634 1313 
Q 3634 634 3220 271 
Q 2806 -91 2034 -91 
Q 1263 -91 848 271 
Q 434 634 434 1313 
Q 434 1759 690 2068 
Q 947 2378 1403 2484 
z
M 1172 3481 
Q 1172 3119 1398 2916 
Q 1625 2713 2034 2713 
Q 2441 2713 2670 2916 
Q 2900 3119 2900 3481 
Q 2900 3844 2670 4047 
Q 2441 4250 2034 4250 
Q 1625 4250 1398 4047 
Q 1172 3844 1172 3481 
z
" transform="scale(0.015625)"/>
       </defs>
       <use xlink:href="#DejaVuSans-38"/>
      </g>
     </g>
    </g>
    <g id="xtick_7">
     <g id="line2d_13">
      <path d="M 350.581875 246.04 
L 350.581875 58.56 
" clip-path="url(#p20b5f488e1)" style="fill: none; stroke: #b0b0b0; stroke-width: 0.8; stroke-linecap: square"/>
     </g>
     <g id="line2d_14">
      <g>
       <use xlink:href="#md4d898b170" x="350.581875" y="246.04" style="stroke: #000000; stroke-width: 0.8"/>
      </g>
     </g>
     <g id="text_7">
      <!-- 10 -->
      <g transform="translate(344.219375 260.638438) scale(0.1 -0.1)">
       <defs>
        <path id="DejaVuSans-31" d="M 794 531 
L 1825 531 
L 1825 4091 
L 703 3866 
L 703 4441 
L 1819 4666 
L 2450 4666 
L 2450 531 
L 3481 531 
L 3481 0 
L 794 0 
L 794 531 
z
" transform="scale(0.015625)"/>
       </defs>
       <use xlink:href="#DejaVuSans-31"/>
       <use xlink:href="#DejaVuSans-30" x="63.623047"/>
      </g>
     </g>
    </g>
    <g id="xtick_8">
     <g id="line2d_15">
      <path d="M 397.660625 246.04 
L 397.660625 58.56 
" clip-path="url(#p20b5f488e1)" style="fill: none; stroke: #b0b0b0; stroke-width: 0.8; stroke-linecap: square"/>
     </g>
     <g id="line2d_16">
      <g>
       <use xlink:href="#md4d898b170" x="397.660625" y="246.04" style="stroke: #000000; stroke-width: 0.8"/>
      </g>
     </g>
     <g id="text_8">
      <!-- 12 -->
      <g transform="translate(391.298125 260.638438) scale(0.1 -0.1)">
       <use xlink:href="#DejaVuSans-31"/>
       <use xlink:href="#DejaVuSans-32" x="63.623047"/>
      </g>
     </g>
    </g>
    <g id="text_9">
     <!-- x -->
     <g transform="translate(229.925625 274.316562) scale(0.1 -0.1)">
      <defs>
       <path id="DejaVuSans-78" d="M 3513 3500 
L 2247 1797 
L 3578 0 
L 2900 0 
L 1881 1375 
L 863 0 
L 184 0 
L 1544 1831 
L 300 3500 
L 978 3500 
L 1906 2253 
L 2834 3500 
L 3513 3500 
z
" transform="scale(0.015625)"/>
      </defs>
      <use xlink:href="#DejaVuSans-78"/>
     </g>
    </g>
   </g>
   <g id="matplotlib.axis_2">
    <g id="ytick_1">
     <g id="line2d_17">
      <path d="M 44.57 221.586087 
L 421.2 221.586087 
" clip-path="url(#p20b5f488e1)" style="fill: none; stroke: #b0b0b0; stroke-width: 0.8; stroke-linecap: square"/>
     </g>
     <g id="line2d_18">
      <defs>
       <path id="m56e0996369" d="M 0 0 
L -3.5 0 
" style="stroke: #000000; stroke-width: 0.8"/>
      </defs>
      <g>
       <use xlink:href="#m56e0996369" x="44.57" y="221.586087" style="stroke: #000000; stroke-width: 0.8"/>
      </g>
     </g>
     <g id="text_10">
      <!-- 0 -->
      <g transform="translate(31.2075 225.385306) scale(0.1 -0.1)">
       <use xlink:href="#DejaVuSans-30"/>
      </g>
     </g>
    </g>
    <g id="ytick_2">
     <g id="line2d_19">
      <path d="M 44.57 180.829565 
L 421.2 180.829565 
" clip-path="url(#p20b5f488e1)" style="fill: none; stroke: #b0b0b0; stroke-width: 0.8; stroke-linecap: square"/>
     </g>
     <g id="line2d_20">
      <g>
       <use xlink:href="#m56e0996369" x="44.57" y="180.829565" style="stroke: #000000; stroke-width: 0.8"/>
      </g>
     </g>
     <g id="text_11">
      <!-- 5 -->
      <g transform="translate(31.2075 184.628784) scale(0.1 -0.1)">
       <defs>
        <path id="DejaVuSans-35" d="M 691 4666 
L 3169 4666 
L 3169 4134 
L 1269 4134 
L 1269 2991 
Q 1406 3038 1543 3061 
Q 1681 3084 1819 3084 
Q 2600 3084 3056 2656 
Q 3513 2228 3513 1497 
Q 3513 744 3044 326 
Q 2575 -91 1722 -91 
Q 1428 -91 1123 -41 
Q 819 9 494 109 
L 494 744 
Q 775 591 1075 516 
Q 1375 441 1709 441 
Q 2250 441 2565 725 
Q 2881 1009 2881 1497 
Q 2881 1984 2565 2268 
Q 2250 2553 1709 2553 
Q 1456 2553 1204 2497 
Q 953 2441 691 2322 
L 691 4666 
z
" transform="scale(0.015625)"/>
       </defs>
       <use xlink:href="#DejaVuSans-35"/>
      </g>
     </g>
    </g>
    <g id="ytick_3">
     <g id="line2d_21">
      <path d="M 44.57 140.073043 
L 421.2 140.073043 
" clip-path="url(#p20b5f488e1)" style="fill: none; stroke: #b0b0b0; stroke-width: 0.8; stroke-linecap: square"/>
     </g>
     <g id="line2d_22">
      <g>
       <use xlink:href="#m56e0996369" x="44.57" y="140.073043" style="stroke: #000000; stroke-width: 0.8"/>
      </g>
     </g>
     <g id="text_12">
      <!-- 10 -->
      <g transform="translate(24.845 143.872262) scale(0.1 -0.1)">
       <use xlink:href="#DejaVuSans-31"/>
       <use xlink:href="#DejaVuSans-30" x="63.623047"/>
      </g>
     </g>
    </g>
    <g id="ytick_4">
     <g id="line2d_23">
      <path d="M 44.57 99.316522 
L 421.2 99.316522 
" clip-path="url(#p20b5f488e1)" style="fill: none; stroke: #b0b0b0; stroke-width: 0.8; stroke-linecap: square"/>
     </g>
     <g id="line2d_24">
      <g>
       <use xlink:href="#m56e0996369" x="44.57" y="99.316522" style="stroke: #000000; stroke-width: 0.8"/>
      </g>
     </g>
     <g id="text_13">
      <!-- 15 -->
      <g transform="translate(24.845 103.11574) scale(0.1 -0.1)">
       <use xlink:href="#DejaVuSans-31"/>
       <use xlink:href="#DejaVuSans-35" x="63.623047"/>
      </g>
     </g>
    </g>
    <g id="ytick_5">
     <g id="line2d_25">
      <path d="M 44.57 58.56 
L 421.2 58.56 
" clip-path="url(#p20b5f488e1)" style="fill: none; stroke: #b0b0b0; stroke-width: 0.8; stroke-linecap: square"/>
     </g>
     <g id="line2d_26">
      <g>
       <use xlink:href="#m56e0996369" x="44.57" y="58.56" style="stroke: #000000; stroke-width: 0.8"/>
      </g>
     </g>
     <g id="text_14">
      <!-- 20 -->
      <g transform="translate(24.845 62.359219) scale(0.1 -0.1)">
       <use xlink:href="#DejaVuSans-32"/>
       <use xlink:href="#DejaVuSans-30" x="63.623047"/>
      </g>
     </g>
    </g>
    <g id="text_15">
     <!-- y -->
     <g transform="translate(18.765313 155.259375) rotate(-90) scale(0.1 -0.1)">
      <defs>
       <path id="DejaVuSans-79" d="M 2059 -325 
Q 1816 -950 1584 -1140 
Q 1353 -1331 966 -1331 
L 506 -1331 
L 506 -850 
L 844 -850 
Q 1081 -850 1212 -737 
Q 1344 -625 1503 -206 
L 1606 56 
L 191 3500 
L 800 3500 
L 1894 763 
L 2988 3500 
L 3597 3500 
L 2059 -325 
z
" transform="scale(0.015625)"/>
      </defs>
      <use xlink:href="#DejaVuSans-79"/>
     </g>
    </g>
   </g>
   <g id="line2d_27">
    <path d="M 121.366258 289 
L 124.118478 274.675435 
L 127.134535 260.03395 
L 130.150591 246.463189 
L 133.166647 233.930467 
L 136.182703 222.4031 
L 138.821752 213.115665 
L 141.460801 204.551034 
L 144.09985 196.687313 
L 146.738899 189.502604 
L 149.377948 182.975012 
L 152.016997 177.082641 
L 154.279039 172.521023 
L 156.541081 168.396223 
L 158.803123 164.694452 
L 161.065165 161.40192 
L 163.327207 158.504839 
L 165.589249 155.989421 
L 167.851291 153.841876 
L 170.113333 152.048417 
L 171.998368 150.8144 
L 173.883403 149.808722 
L 175.768438 149.0234 
L 177.653473 148.450457 
L 179.538509 148.081912 
L 181.423544 147.909786 
L 183.685586 147.951273 
L 185.947628 148.250323 
L 188.20967 148.793149 
L 190.471712 149.565961 
L 192.733754 150.55497 
L 195.372803 151.963669 
L 198.011852 153.625973 
L 201.027908 155.808197 
L 204.043964 158.260377 
L 207.437027 161.301066 
L 211.207097 164.975207 
L 215.731181 169.707829 
L 221.386286 175.960687 
L 237.597588 194.103859 
L 242.121672 198.733301 
L 245.891742 202.294436 
L 249.284805 205.212414 
L 252.300861 207.538813 
L 255.316917 209.579533 
L 257.955966 211.105123 
L 260.595015 212.365071 
L 262.857057 213.216998 
L 265.119099 213.843884 
L 267.381141 214.23194 
L 269.643183 214.367376 
L 271.528218 214.277319 
L 273.413253 213.994277 
L 275.298288 213.51027 
L 277.183323 212.817319 
L 279.068358 211.907444 
L 280.953393 210.772666 
L 282.838428 209.405005 
L 284.723463 207.796481 
L 286.985506 205.537079 
L 289.247548 202.905556 
L 291.50959 199.888122 
L 293.771632 196.470989 
L 296.033674 192.640369 
L 298.295716 188.382472 
L 300.557758 183.683511 
L 302.8198 178.529695 
L 305.458849 171.923631 
L 308.097898 164.657795 
L 310.736947 156.710293 
L 313.375996 148.059229 
L 316.015045 138.682706 
L 318.654094 128.558829 
L 321.67015 116.045467 
L 324.686206 102.494686 
L 327.702262 87.873801 
L 330.718318 72.150127 
L 333.734374 55.290981 
L 336.75043 37.263677 
L 340.143493 15.545951 
L 342.577818 -1 
L 342.577818 -1 
" clip-path="url(#p20b5f488e1)" style="fill: none; stroke: #a18262; stroke-width: 1.5; stroke-linecap: square"/>
   </g>
   <g id="line2d_28">
    <path d="M 138.7275 213.434783 
" clip-path="url(#p20b5f488e1)" style="fill: none; stroke: #f7dc6f; stroke-width: 1.5; stroke-linecap: square"/>
    <defs>
     <path id="m0e88817e9b" d="M 0 3 
C 0.795609 3 1.55874 2.683901 2.12132 2.12132 
C 2.683901 1.55874 3 0.795609 3 0 
C 3 -0.795609 2.683901 -1.55874 2.12132 -2.12132 
C 1.55874 -2.683901 0.795609 -3 0 -3 
C -0.795609 -3 -1.55874 -2.683901 -2.12132 -2.12132 
C -2.683901 -1.55874 -3 -0.795609 -3 0 
C -3 0.795609 -2.683901 1.55874 -2.12132 2.12132 
C -1.55874 2.683901 -0.795609 3 0 3 
z
" style="stroke: #f7dc6f"/>
    </defs>
    <g clip-path="url(#p20b5f488e1)">
     <use xlink:href="#m0e88817e9b" x="138.7275" y="213.434783" style="fill: #f7dc6f; stroke: #f7dc6f"/>
    </g>
   </g>
   <g id="line2d_29">
    <path d="M 185.80625 148.224348 
" clip-path="url(#p20b5f488e1)" style="fill: none; stroke: #f7dc6f; stroke-width: 1.5; stroke-linecap: square"/>
    <g clip-path="url(#p20b5f488e1)">
     <use xlink:href="#m0e88817e9b" x="185.80625" y="148.224348" style="fill: #f7dc6f; stroke: #f7dc6f"/>
    </g>
   </g>
   <g id="line2d_30">
    <path d="M 232.885 188.98087 
" clip-path="url(#p20b5f488e1)" style="fill: none; stroke: #f7dc6f; stroke-width: 1.5; stroke-linecap: square"/>
    <g clip-path="url(#p20b5f488e1)">
     <use xlink:href="#m0e88817e9b" x="232.885" y="188.98087" style="fill: #f7dc6f; stroke: #f7dc6f"/>
    </g>
   </g>
   <g id="line2d_31">
    <path d="M 327.0425 91.165217 
" clip-path="url(#p20b5f488e1)" style="fill: none; stroke: #f7dc6f; stroke-width: 1.5; stroke-linecap: square"/>
    <g clip-path="url(#p20b5f488e1)">
     <use xlink:href="#m0e88817e9b" x="327.0425" y="91.165217" style="fill: #f7dc6f; stroke: #f7dc6f"/>
    </g>
   </g>
   <g id="line2d_32">
    <path d="M 44.57 221.586087 
L 421.2 221.586087 
" clip-path="url(#p20b5f488e1)" style="fill: none; stroke-dasharray: 3.7,1.6; stroke-dashoffset: 0; stroke: #ff0000"/>
   </g>
   <g id="line2d_33">
    <path d="M 115.188125 246.04 
L 115.188125 58.56 
" clip-path="url(#p20b5f488e1)" style="fill: none; stroke-dasharray: 3.7,1.6; stroke-dashoffset: 0; stroke: #ff0000"/>
   </g>
   <g id="patch_3">
    <path d="M 44.57 246.04 
L 44.57 58.56 
" style="fill: none; stroke: #000000; stroke-width: 0.8; stroke-linejoin: miter; stroke-linecap: square"/>
   </g>
   <g id="patch_4">
    <path d="M 421.2 246.04 
L 421.2 58.56 
" style="fill: none; stroke: #000000; stroke-width: 0.8; stroke-linejoin: miter; stroke-linecap: square"/>
   </g>
   <g id="patch_5">
    <path d="M 44.57 246.04 
L 421.2 246.04 
" style="fill: none; stroke: #000000; stroke-width: 0.8; stroke-linejoin: miter; stroke-linecap: square"/>
   </g>
   <g id="patch_6">
    <path d="M 44.57 58.56 
L 421.2 58.56 
" style="fill: none; stroke: #000000; stroke-width: 0.8; stroke-linejoin: miter; stroke-linecap: square"/>
   </g>
   <g id="text_16">
    <!-- (1.0, 1.0) -->
    <g transform="translate(138.7275 211.563064) scale(0.09 -0.09)">
     <defs>
      <path id="DejaVuSans-28" d="M 1984 4856 
Q 1566 4138 1362 3434 
Q 1159 2731 1159 2009 
Q 1159 1288 1364 580 
Q 1569 -128 1984 -844 
L 1484 -844 
Q 1016 -109 783 600 
Q 550 1309 550 2009 
Q 550 2706 781 3412 
Q 1013 4119 1484 4856 
L 1984 4856 
z
" transform="scale(0.015625)"/>
      <path id="DejaVuSans-2e" d="M 684 794 
L 1344 794 
L 1344 0 
L 684 0 
L 684 794 
z
" transform="scale(0.015625)"/>
      <path id="DejaVuSans-2c" d="M 750 794 
L 1409 794 
L 1409 256 
L 897 -744 
L 494 -744 
L 750 256 
L 750 794 
z
" transform="scale(0.015625)"/>
      <path id="DejaVuSans-20" transform="scale(0.015625)"/>
      <path id="DejaVuSans-29" d="M 513 4856 
L 1013 4856 
Q 1481 4119 1714 3412 
Q 1947 2706 1947 2009 
Q 1947 1309 1714 600 
Q 1481 -109 1013 -844 
L 513 -844 
Q 928 -128 1133 580 
Q 1338 1288 1338 2009 
Q 1338 2731 1133 3434 
Q 928 4138 513 4856 
z
" transform="scale(0.015625)"/>
     </defs>
     <use xlink:href="#DejaVuSans-28"/>
     <use xlink:href="#DejaVuSans-31" x="39.013672"/>
     <use xlink:href="#DejaVuSans-2e" x="102.636719"/>
     <use xlink:href="#DejaVuSans-30" x="134.423828"/>
     <use xlink:href="#DejaVuSans-2c" x="198.046875"/>
     <use xlink:href="#DejaVuSans-20" x="229.833984"/>
     <use xlink:href="#DejaVuSans-31" x="261.621094"/>
     <use xlink:href="#DejaVuSans-2e" x="325.244141"/>
     <use xlink:href="#DejaVuSans-30" x="357.03125"/>
     <use xlink:href="#DejaVuSans-29" x="420.654297"/>
    </g>
   </g>
   <g id="text_17">
    <!-- (3.0, 9.0) -->
    <g transform="translate(185.80625 146.352629) scale(0.09 -0.09)">
     <defs>
      <path id="DejaVuSans-33" d="M 2597 2516 
Q 3050 2419 3304 2112 
Q 3559 1806 3559 1356 
Q 3559 666 3084 287 
Q 2609 -91 1734 -91 
Q 1441 -91 1130 -33 
Q 819 25 488 141 
L 488 750 
Q 750 597 1062 519 
Q 1375 441 1716 441 
Q 2309 441 2620 675 
Q 2931 909 2931 1356 
Q 2931 1769 2642 2001 
Q 2353 2234 1838 2234 
L 1294 2234 
L 1294 2753 
L 1863 2753 
Q 2328 2753 2575 2939 
Q 2822 3125 2822 3475 
Q 2822 3834 2567 4026 
Q 2313 4219 1838 4219 
Q 1578 4219 1281 4162 
Q 984 4106 628 3988 
L 628 4550 
Q 988 4650 1302 4700 
Q 1616 4750 1894 4750 
Q 2613 4750 3031 4423 
Q 3450 4097 3450 3541 
Q 3450 3153 3228 2886 
Q 3006 2619 2597 2516 
z
" transform="scale(0.015625)"/>
      <path id="DejaVuSans-39" d="M 703 97 
L 703 672 
Q 941 559 1184 500 
Q 1428 441 1663 441 
Q 2288 441 2617 861 
Q 2947 1281 2994 2138 
Q 2813 1869 2534 1725 
Q 2256 1581 1919 1581 
Q 1219 1581 811 2004 
Q 403 2428 403 3163 
Q 403 3881 828 4315 
Q 1253 4750 1959 4750 
Q 2769 4750 3195 4129 
Q 3622 3509 3622 2328 
Q 3622 1225 3098 567 
Q 2575 -91 1691 -91 
Q 1453 -91 1209 -44 
Q 966 3 703 97 
z
M 1959 2075 
Q 2384 2075 2632 2365 
Q 2881 2656 2881 3163 
Q 2881 3666 2632 3958 
Q 2384 4250 1959 4250 
Q 1534 4250 1286 3958 
Q 1038 3666 1038 3163 
Q 1038 2656 1286 2365 
Q 1534 2075 1959 2075 
z
" transform="scale(0.015625)"/>
     </defs>
     <use xlink:href="#DejaVuSans-28"/>
     <use xlink:href="#DejaVuSans-33" x="39.013672"/>
     <use xlink:href="#DejaVuSans-2e" x="102.636719"/>
     <use xlink:href="#DejaVuSans-30" x="134.423828"/>
     <use xlink:href="#DejaVuSans-2c" x="198.046875"/>
     <use xlink:href="#DejaVuSans-20" x="229.833984"/>
     <use xlink:href="#DejaVuSans-39" x="261.621094"/>
     <use xlink:href="#DejaVuSans-2e" x="325.244141"/>
     <use xlink:href="#DejaVuSans-30" x="357.03125"/>
     <use xlink:href="#DejaVuSans-29" x="420.654297"/>
    </g>
   </g>
   <g id="text_18">
    <!-- (5.0, 4.0) -->
    <g transform="translate(232.885 187.109151) scale(0.09 -0.09)">
     <use xlink:href="#DejaVuSans-28"/>
     <use xlink:href="#DejaVuSans-35" x="39.013672"/>
     <use xlink:href="#DejaVuSans-2e" x="102.636719"/>
     <use xlink:href="#DejaVuSans-30" x="134.423828"/>
     <use xlink:href="#DejaVuSans-2c" x="198.046875"/>
     <use xlink:href="#DejaVuSans-20" x="229.833984"/>
     <use xlink:href="#DejaVuSans-34" x="261.621094"/>
     <use xlink:href="#DejaVuSans-2e" x="325.244141"/>
     <use xlink:href="#DejaVuSans-30" x="357.03125"/>
     <use xlink:href="#DejaVuSans-29" x="420.654297"/>
    </g>
   </g>
   <g id="text_19">
    <!-- (9.0, 16.0) -->
    <g transform="translate(327.0425 89.293499) scale(0.09 -0.09)">
     <use xlink:href="#DejaVuSans-28"/>
     <use xlink:href="#DejaVuSans-39" x="39.013672"/>
     <use xlink:href="#DejaVuSans-2e" x="102.636719"/>
     <use xlink:href="#DejaVuSans-30" x="134.423828"/>
     <use xlink:href="#DejaVuSans-2c" x="198.046875"/>
     <use xlink:href="#DejaVuSans-20" x="229.833984"/>
     <use xlink:href="#DejaVuSans-31" x="261.621094"/>
     <use xlink:href="#DejaVuSans-36" x="325.244141"/>
     <use xlink:href="#DejaVuSans-2e" x="388.867188"/>
     <use xlink:href="#DejaVuSans-30" x="420.654297"/>
     <use xlink:href="#DejaVuSans-29" x="484.277344"/>
    </g>
   </g>
   <g id="text_20">
    <!-- f(x) = +0.3177083333333333*x**3- -->
    <g transform="translate(141.59125 22.614187) scale(0.1 -0.1)">
     <defs>
      <path id="DejaVuSans-66" d="M 2375 4863 
L 2375 4384 
L 1825 4384 
Q 1516 4384 1395 4259 
Q 1275 4134 1275 3809 
L 1275 3500 
L 2222 3500 
L 2222 3053 
L 1275 3053 
L 1275 0 
L 697 0 
L 697 3053 
L 147 3053 
L 147 3500 
L 697 3500 
L 697 3744 
Q 697 4328 969 4595 
Q 1241 4863 1831 4863 
L 2375 4863 
z
" transform="scale(0.015625)"/>
      <path id="DejaVuSans-3d" d="M 678 2906 
L 4684 2906 
L 4684 2381 
L 678 2381 
L 678 2906 
z
M 678 1631 
L 4684 1631 
L 4684 1100 
L 678 1100 
L 678 1631 
z
" transform="scale(0.015625)"/>
      <path id="DejaVuSans-2b" d="M 2944 4013 
L 2944 2272 
L 4684 2272 
L 4684 1741 
L 2944 1741 
L 2944 0 
L 2419 0 
L 2419 1741 
L 678 1741 
L 678 2272 
L 2419 2272 
L 2419 4013 
L 2944 4013 
z
" transform="scale(0.015625)"/>
      <path id="DejaVuSans-37" d="M 525 4666 
L 3525 4666 
L 3525 4397 
L 1831 0 
L 1172 0 
L 2766 4134 
L 525 4134 
L 525 4666 
z
" transform="scale(0.015625)"/>
      <path id="DejaVuSans-2a" d="M 3009 3897 
L 1888 3291 
L 3009 2681 
L 2828 2375 
L 1778 3009 
L 1778 1831 
L 1422 1831 
L 1422 3009 
L 372 2375 
L 191 2681 
L 1313 3291 
L 191 3897 
L 372 4206 
L 1422 3572 
L 1422 4750 
L 1778 4750 
L 1778 3572 
L 2828 4206 
L 3009 3897 
z
" transform="scale(0.015625)"/>
      <path id="DejaVuSans-2d" d="M 313 2009 
L 1997 2009 
L 1997 1497 
L 313 1497 
L 313 2009 
z
" transform="scale(0.015625)"/>
     </defs>
     <use xlink:href="#DejaVuSans-66"/>
     <use xlink:href="#DejaVuSans-28" x="35.205078"/>
     <use xlink:href="#DejaVuSans-78" x="74.21875"/>
     <use xlink:href="#DejaVuSans-29" x="133.398438"/>
     <use xlink:href="#DejaVuSans-20" x="172.412109"/>
     <use xlink:href="#DejaVuSans-3d" x="204.199219"/>
     <use xlink:href="#DejaVuSans-20" x="287.988281"/>
     <use xlink:href="#DejaVuSans-2b" x="319.775391"/>
     <use xlink:href="#DejaVuSans-30" x="403.564453"/>
     <use xlink:href="#DejaVuSans-2e" x="467.1875"/>
     <use xlink:href="#DejaVuSans-33" x="498.974609"/>
     <use xlink:href="#DejaVuSans-31" x="562.597656"/>
     <use xlink:href="#DejaVuSans-37" x="626.220703"/>
     <use xlink:href="#DejaVuSans-37" x="689.84375"/>
     <use xlink:href="#DejaVuSans-30" x="753.466797"/>
     <use xlink:href="#DejaVuSans-38" x="817.089844"/>
     <use xlink:href="#DejaVuSans-33" x="880.712891"/>
     <use xlink:href="#DejaVuSans-33" x="944.335938"/>
     <use xlink:href="#DejaVuSans-33" x="1007.958984"/>
     <use xlink:href="#DejaVuSans-33" x="1071.582031"/>
     <use xlink:href="#DejaVuSans-33" x="1135.205078"/>
     <use xlink:href="#DejaVuSans-33" x="1198.828125"/>
     <use xlink:href="#DejaVuSans-33" x="1262.451172"/>
     <use xlink:href="#DejaVuSans-33" x="1326.074219"/>
     <use xlink:href="#DejaVuSans-33" x="1389.697266"/>
     <use xlink:href="#DejaVuSans-33" x="1453.320312"/>
     <use xlink:href="#DejaVuSans-2a" x="1516.943359"/>
     <use xlink:href="#DejaVuSans-78" x="1566.943359"/>
     <use xlink:href="#DejaVuSans-2a" x="1626.123047"/>
     <use xlink:href="#DejaVuSans-2a" x="1676.123047"/>
     <use xlink:href="#DejaVuSans-33" x="1726.123047"/>
     <use xlink:href="#DejaVuSans-2d" x="1789.746094"/>
    </g>
    <!-- 4.484375*x**2+17.807291666666668*x**1-12.640625 -->
    <g transform="translate(93.042812 33.812) scale(0.1 -0.1)">
     <use xlink:href="#DejaVuSans-34"/>
     <use xlink:href="#DejaVuSans-2e" x="63.623047"/>
     <use xlink:href="#DejaVuSans-34" x="95.410156"/>
     <use xlink:href="#DejaVuSans-38" x="159.033203"/>
     <use xlink:href="#DejaVuSans-34" x="222.65625"/>
     <use xlink:href="#DejaVuSans-33" x="286.279297"/>
     <use xlink:href="#DejaVuSans-37" x="349.902344"/>
     <use xlink:href="#DejaVuSans-35" x="413.525391"/>
     <use xlink:href="#DejaVuSans-2a" x="477.148438"/>
     <use xlink:href="#DejaVuSans-78" x="527.148438"/>
     <use xlink:href="#DejaVuSans-2a" x="586.328125"/>
     <use xlink:href="#DejaVuSans-2a" x="636.328125"/>
     <use xlink:href="#DejaVuSans-32" x="686.328125"/>
     <use xlink:href="#DejaVuSans-2b" x="749.951172"/>
     <use xlink:href="#DejaVuSans-31" x="833.740234"/>
     <use xlink:href="#DejaVuSans-37" x="897.363281"/>
     <use xlink:href="#DejaVuSans-2e" x="960.986328"/>
     <use xlink:href="#DejaVuSans-38" x="992.773438"/>
     <use xlink:href="#DejaVuSans-30" x="1056.396484"/>
     <use xlink:href="#DejaVuSans-37" x="1120.019531"/>
     <use xlink:href="#DejaVuSans-32" x="1183.642578"/>
     <use xlink:href="#DejaVuSans-39" x="1247.265625"/>
     <use xlink:href="#DejaVuSans-31" x="1310.888672"/>
     <use xlink:href="#DejaVuSans-36" x="1374.511719"/>
     <use xlink:href="#DejaVuSans-36" x="1438.134766"/>
     <use xlink:href="#DejaVuSans-36" x="1501.757812"/>
     <use xlink:href="#DejaVuSans-36" x="1565.380859"/>
     <use xlink:href="#DejaVuSans-36" x="1629.003906"/>
     <use xlink:href="#DejaVuSans-36" x="1692.626953"/>
     <use xlink:href="#DejaVuSans-36" x="1756.25"/>
     <use xlink:href="#DejaVuSans-36" x="1819.873047"/>
     <use xlink:href="#DejaVuSans-38" x="1883.496094"/>
     <use xlink:href="#DejaVuSans-2a" x="1947.119141"/>
     <use xlink:href="#DejaVuSans-78" x="1997.119141"/>
     <use xlink:href="#DejaVuSans-2a" x="2056.298828"/>
     <use xlink:href="#DejaVuSans-2a" x="2106.298828"/>
     <use xlink:href="#DejaVuSans-31" x="2156.298828"/>
     <use xlink:href="#DejaVuSans-2d" x="2219.921875"/>
     <use xlink:href="#DejaVuSans-31" x="2256.005859"/>
     <use xlink:href="#DejaVuSans-32" x="2319.628906"/>
     <use xlink:href="#DejaVuSans-2e" x="2383.251953"/>
     <use xlink:href="#DejaVuSans-36" x="2415.039062"/>
     <use xlink:href="#DejaVuSans-34" x="2478.662109"/>
     <use xlink:href="#DejaVuSans-30" x="2542.285156"/>
     <use xlink:href="#DejaVuSans-36" x="2605.908203"/>
     <use xlink:href="#DejaVuSans-32" x="2669.53125"/>
     <use xlink:href="#DejaVuSans-35" x="2733.154297"/>
    </g>
   </g>
   <g id="legend_1">
    <g id="patch_7">
     <path d="M 364.957812 81.238125 
L 414.2 81.238125 
Q 416.2 81.238125 416.2 79.238125 
L 416.2 65.56 
Q 416.2 63.56 414.2 63.56 
L 364.957812 63.56 
Q 362.957812 63.56 362.957812 65.56 
L 362.957812 79.238125 
Q 362.957812 81.238125 364.957812 81.238125 
z
" style="fill: #ffffff; opacity: 0.8; stroke: #cccccc; stroke-linejoin: miter"/>
    </g>
    <g id="line2d_34">
     <path d="M 366.957812 71.658437 
L 376.957812 71.658437 
L 386.957812 71.658437 
" style="fill: none; stroke: #a18262; stroke-width: 1.5; stroke-linecap: square"/>
    </g>
    <g id="text_21">
     <!-- f(x) -->
     <g transform="translate(394.957812 75.158437) scale(0.1 -0.1)">
      <use xlink:href="#DejaVuSans-66"/>
      <use xlink:href="#DejaVuSans-28" x="35.205078"/>
      <use xlink:href="#DejaVuSans-78" x="74.21875"/>
      <use xlink:href="#DejaVuSans-29" x="133.398438"/>
     </g>
    </g>
   </g>
  </g>
 </g>
 <defs>
  <clipPath id="p20b5f488e1">
   <rect x="44.57" y="58.56" width="376.63" height="187.48"/>
  </clipPath>
 </defs>
</svg>
