<?xml version="1.0" encoding="utf-8" standalone="no"?>
<!DOCTYPE svg PUBLIC "-//W3C//DTD SVG 1.1//EN"
  "http://www.w3.org/Graphics/SVG/1.1/DTD/svg11.dtd">
<svg xmlns:xlink="http://www.w3.org/1999/xlink" width="432pt" height="288pt" viewBox="0 0 432 288" xmlns="http://www.w3.org/2000/svg" version="1.1">
 <metadata>
  <rdf:RDF xmlns:dc="http://purl.org/dc/elements/1.1/" xmlns:cc="http://creativecommons.org/ns#" xmlns:rdf="http://www.w3.org/1999/02/22-rdf-syntax-ns#">
   <cc:Work>
    <dc:type rdf:resource="http://purl.org/dc/dcmitype/StillImage"/>
    <dc:date>2024-11-12T13:08:42.282773</dc:date>
    <dc:format>image/svg+xml</dc:format>
    <dc:creator>
     <cc:Agent>
      <dc:title>Matplotlib v3.9.2, https://matplotlib.org/</dc:title>
     </cc:Agent>
    </dc:creator>
   </cc:Work>
  </rdf:RDF>
 </metadata>
 <defs>
  <style type="text/css">*{stroke-linejoin: round; stroke-linecap: butt}</style>
 </defs>
 <g id="figure_1">
  <g id="patch_1">
   <path d="M 0 288 
L 432 288 
L 432 0 
L 0 0 
z
" style="fill: #ffffff"/>
  </g>
  <g id="axes_1">
   <g id="patch_2">
    <path d="M 46.55 246.04 
L 421.2 246.04 
L 421.2 58.56 
L 46.55 58.56 
z
" style="fill: #ffffff"/>
   </g>
   <g id="matplotlib.axis_1">
    <g id="xtick_1">
     <g id="line2d_1">
      <path d="M 46.55 246.04 
L 46.55 58.56 
" clip-path="url(#pdb6f72e686)" style="fill: none; stroke: #b0b0b0; stroke-width: 0.8; stroke-linecap: square"/>
     </g>
     <g id="line2d_2">
      <defs>
       <path id="m32dcedcea9" d="M 0 0 
L 0 3.5 
" style="stroke: #000000; stroke-width: 0.8"/>
      </defs>
      <g>
       <use xlink:href="#m32dcedcea9" x="46.55" y="246.04" style="stroke: #000000; stroke-width: 0.8"/>
      </g>
     </g>
     <g id="text_1">
      <!-- 15.0 -->
      <g transform="translate(35.417187 260.638438) scale(0.1 -0.1)">
       <defs>
        <path id="DejaVuSans-31" d="M 794 531 
L 1825 531 
L 1825 4091 
L 703 3866 
L 703 4441 
L 1819 4666 
L 2450 4666 
L 2450 531 
L 3481 531 
L 3481 0 
L 794 0 
L 794 531 
z
" transform="scale(0.015625)"/>
        <path id="DejaVuSans-35" d="M 691 4666 
L 3169 4666 
L 3169 4134 
L 1269 4134 
L 1269 2991 
Q 1406 3038 1543 3061 
Q 1681 3084 1819 3084 
Q 2600 3084 3056 2656 
Q 3513 2228 3513 1497 
Q 3513 744 3044 326 
Q 2575 -91 1722 -91 
Q 1428 -91 1123 -41 
Q 819 9 494 109 
L 494 744 
Q 775 591 1075 516 
Q 1375 441 1709 441 
Q 2250 441 2565 725 
Q 2881 1009 2881 1497 
Q 2881 1984 2565 2268 
Q 2250 2553 1709 2553 
Q 1456 2553 1204 2497 
Q 953 2441 691 2322 
L 691 4666 
z
" transform="scale(0.015625)"/>
        <path id="DejaVuSans-2e" d="M 684 794 
L 1344 794 
L 1344 0 
L 684 0 
L 684 794 
z
" transform="scale(0.015625)"/>
        <path id="DejaVuSans-30" d="M 2034 4250 
Q 1547 4250 1301 3770 
Q 1056 3291 1056 2328 
Q 1056 1369 1301 889 
Q 1547 409 2034 409 
Q 2525 409 2770 889 
Q 3016 1369 3016 2328 
Q 3016 3291 2770 3770 
Q 2525 4250 2034 4250 
z
M 2034 4750 
Q 2819 4750 3233 4129 
Q 3647 3509 3647 2328 
Q 3647 1150 3233 529 
Q 2819 -91 2034 -91 
Q 1250 -91 836 529 
Q 422 1150 422 2328 
Q 422 3509 836 4129 
Q 1250 4750 2034 4750 
z
" transform="scale(0.015625)"/>
       </defs>
       <use xlink:href="#DejaVuSans-31"/>
       <use xlink:href="#DejaVuSans-35" x="63.623047"/>
       <use xlink:href="#DejaVuSans-2e" x="127.246094"/>
       <use xlink:href="#DejaVuSans-30" x="159.033203"/>
      </g>
     </g>
    </g>
    <g id="xtick_2">
     <g id="line2d_3">
      <path d="M 89.123864 246.04 
L 89.123864 58.56 
" clip-path="url(#pdb6f72e686)" style="fill: none; stroke: #b0b0b0; stroke-width: 0.8; stroke-linecap: square"/>
     </g>
     <g id="line2d_4">
      <g>
       <use xlink:href="#m32dcedcea9" x="89.123864" y="246.04" style="stroke: #000000; stroke-width: 0.8"/>
      </g>
     </g>
     <g id="text_2">
      <!-- 17.5 -->
      <g transform="translate(77.991051 260.638438) scale(0.1 -0.1)">
       <defs>
        <path id="DejaVuSans-37" d="M 525 4666 
L 3525 4666 
L 3525 4397 
L 1831 0 
L 1172 0 
L 2766 4134 
L 525 4134 
L 525 4666 
z
" transform="scale(0.015625)"/>
       </defs>
       <use xlink:href="#DejaVuSans-31"/>
       <use xlink:href="#DejaVuSans-37" x="63.623047"/>
       <use xlink:href="#DejaVuSans-2e" x="127.246094"/>
       <use xlink:href="#DejaVuSans-35" x="159.033203"/>
      </g>
     </g>
    </g>
    <g id="xtick_3">
     <g id="line2d_5">
      <path d="M 131.697727 246.04 
L 131.697727 58.56 
" clip-path="url(#pdb6f72e686)" style="fill: none; stroke: #b0b0b0; stroke-width: 0.8; stroke-linecap: square"/>
     </g>
     <g id="line2d_6">
      <g>
       <use xlink:href="#m32dcedcea9" x="131.697727" y="246.04" style="stroke: #000000; stroke-width: 0.8"/>
      </g>
     </g>
     <g id="text_3">
      <!-- 20.0 -->
      <g transform="translate(120.564915 260.638438) scale(0.1 -0.1)">
       <defs>
        <path id="DejaVuSans-32" d="M 1228 531 
L 3431 531 
L 3431 0 
L 469 0 
L 469 531 
Q 828 903 1448 1529 
Q 2069 2156 2228 2338 
Q 2531 2678 2651 2914 
Q 2772 3150 2772 3378 
Q 2772 3750 2511 3984 
Q 2250 4219 1831 4219 
Q 1534 4219 1204 4116 
Q 875 4013 500 3803 
L 500 4441 
Q 881 4594 1212 4672 
Q 1544 4750 1819 4750 
Q 2544 4750 2975 4387 
Q 3406 4025 3406 3419 
Q 3406 3131 3298 2873 
Q 3191 2616 2906 2266 
Q 2828 2175 2409 1742 
Q 1991 1309 1228 531 
z
" transform="scale(0.015625)"/>
       </defs>
       <use xlink:href="#DejaVuSans-32"/>
       <use xlink:href="#DejaVuSans-30" x="63.623047"/>
       <use xlink:href="#DejaVuSans-2e" x="127.246094"/>
       <use xlink:href="#DejaVuSans-30" x="159.033203"/>
      </g>
     </g>
    </g>
    <g id="xtick_4">
     <g id="line2d_7">
      <path d="M 174.271591 246.04 
L 174.271591 58.56 
" clip-path="url(#pdb6f72e686)" style="fill: none; stroke: #b0b0b0; stroke-width: 0.8; stroke-linecap: square"/>
     </g>
     <g id="line2d_8">
      <g>
       <use xlink:href="#m32dcedcea9" x="174.271591" y="246.04" style="stroke: #000000; stroke-width: 0.8"/>
      </g>
     </g>
     <g id="text_4">
      <!-- 22.5 -->
      <g transform="translate(163.138778 260.638438) scale(0.1 -0.1)">
       <use xlink:href="#DejaVuSans-32"/>
       <use xlink:href="#DejaVuSans-32" x="63.623047"/>
       <use xlink:href="#DejaVuSans-2e" x="127.246094"/>
       <use xlink:href="#DejaVuSans-35" x="159.033203"/>
      </g>
     </g>
    </g>
    <g id="xtick_5">
     <g id="line2d_9">
      <path d="M 216.845455 246.04 
L 216.845455 58.56 
" clip-path="url(#pdb6f72e686)" style="fill: none; stroke: #b0b0b0; stroke-width: 0.8; stroke-linecap: square"/>
     </g>
     <g id="line2d_10">
      <g>
       <use xlink:href="#m32dcedcea9" x="216.845455" y="246.04" style="stroke: #000000; stroke-width: 0.8"/>
      </g>
     </g>
     <g id="text_5">
      <!-- 25.0 -->
      <g transform="translate(205.712642 260.638438) scale(0.1 -0.1)">
       <use xlink:href="#DejaVuSans-32"/>
       <use xlink:href="#DejaVuSans-35" x="63.623047"/>
       <use xlink:href="#DejaVuSans-2e" x="127.246094"/>
       <use xlink:href="#DejaVuSans-30" x="159.033203"/>
      </g>
     </g>
    </g>
    <g id="xtick_6">
     <g id="line2d_11">
      <path d="M 259.419318 246.04 
L 259.419318 58.56 
" clip-path="url(#pdb6f72e686)" style="fill: none; stroke: #b0b0b0; stroke-width: 0.8; stroke-linecap: square"/>
     </g>
     <g id="line2d_12">
      <g>
       <use xlink:href="#m32dcedcea9" x="259.419318" y="246.04" style="stroke: #000000; stroke-width: 0.8"/>
      </g>
     </g>
     <g id="text_6">
      <!-- 27.5 -->
      <g transform="translate(248.286506 260.638438) scale(0.1 -0.1)">
       <use xlink:href="#DejaVuSans-32"/>
       <use xlink:href="#DejaVuSans-37" x="63.623047"/>
       <use xlink:href="#DejaVuSans-2e" x="127.246094"/>
       <use xlink:href="#DejaVuSans-35" x="159.033203"/>
      </g>
     </g>
    </g>
    <g id="xtick_7">
     <g id="line2d_13">
      <path d="M 301.993182 246.04 
L 301.993182 58.56 
" clip-path="url(#pdb6f72e686)" style="fill: none; stroke: #b0b0b0; stroke-width: 0.8; stroke-linecap: square"/>
     </g>
     <g id="line2d_14">
      <g>
       <use xlink:href="#m32dcedcea9" x="301.993182" y="246.04" style="stroke: #000000; stroke-width: 0.8"/>
      </g>
     </g>
     <g id="text_7">
      <!-- 30.0 -->
      <g transform="translate(290.860369 260.638438) scale(0.1 -0.1)">
       <defs>
        <path id="DejaVuSans-33" d="M 2597 2516 
Q 3050 2419 3304 2112 
Q 3559 1806 3559 1356 
Q 3559 666 3084 287 
Q 2609 -91 1734 -91 
Q 1441 -91 1130 -33 
Q 819 25 488 141 
L 488 750 
Q 750 597 1062 519 
Q 1375 441 1716 441 
Q 2309 441 2620 675 
Q 2931 909 2931 1356 
Q 2931 1769 2642 2001 
Q 2353 2234 1838 2234 
L 1294 2234 
L 1294 2753 
L 1863 2753 
Q 2328 2753 2575 2939 
Q 2822 3125 2822 3475 
Q 2822 3834 2567 4026 
Q 2313 4219 1838 4219 
Q 1578 4219 1281 4162 
Q 984 4106 628 3988 
L 628 4550 
Q 988 4650 1302 4700 
Q 1616 4750 1894 4750 
Q 2613 4750 3031 4423 
Q 3450 4097 3450 3541 
Q 3450 3153 3228 2886 
Q 3006 2619 2597 2516 
z
" transform="scale(0.015625)"/>
       </defs>
       <use xlink:href="#DejaVuSans-33"/>
       <use xlink:href="#DejaVuSans-30" x="63.623047"/>
       <use xlink:href="#DejaVuSans-2e" x="127.246094"/>
       <use xlink:href="#DejaVuSans-30" x="159.033203"/>
      </g>
     </g>
    </g>
    <g id="xtick_8">
     <g id="line2d_15">
      <path d="M 344.567045 246.04 
L 344.567045 58.56 
" clip-path="url(#pdb6f72e686)" style="fill: none; stroke: #b0b0b0; stroke-width: 0.8; stroke-linecap: square"/>
     </g>
     <g id="line2d_16">
      <g>
       <use xlink:href="#m32dcedcea9" x="344.567045" y="246.04" style="stroke: #000000; stroke-width: 0.8"/>
      </g>
     </g>
     <g id="text_8">
      <!-- 32.5 -->
      <g transform="translate(333.434233 260.638438) scale(0.1 -0.1)">
       <use xlink:href="#DejaVuSans-33"/>
       <use xlink:href="#DejaVuSans-32" x="63.623047"/>
       <use xlink:href="#DejaVuSans-2e" x="127.246094"/>
       <use xlink:href="#DejaVuSans-35" x="159.033203"/>
      </g>
     </g>
    </g>
    <g id="xtick_9">
     <g id="line2d_17">
      <path d="M 387.140909 246.04 
L 387.140909 58.56 
" clip-path="url(#pdb6f72e686)" style="fill: none; stroke: #b0b0b0; stroke-width: 0.8; stroke-linecap: square"/>
     </g>
     <g id="line2d_18">
      <g>
       <use xlink:href="#m32dcedcea9" x="387.140909" y="246.04" style="stroke: #000000; stroke-width: 0.8"/>
      </g>
     </g>
     <g id="text_9">
      <!-- 35.0 -->
      <g transform="translate(376.008097 260.638438) scale(0.1 -0.1)">
       <use xlink:href="#DejaVuSans-33"/>
       <use xlink:href="#DejaVuSans-35" x="63.623047"/>
       <use xlink:href="#DejaVuSans-2e" x="127.246094"/>
       <use xlink:href="#DejaVuSans-30" x="159.033203"/>
      </g>
     </g>
    </g>
    <g id="text_10">
     <!-- x -->
     <g transform="translate(230.915625 274.316562) scale(0.1 -0.1)">
      <defs>
       <path id="DejaVuSans-78" d="M 3513 3500 
L 2247 1797 
L 3578 0 
L 2900 0 
L 1881 1375 
L 863 0 
L 184 0 
L 1544 1831 
L 300 3500 
L 978 3500 
L 1906 2253 
L 2834 3500 
L 3513 3500 
z
" transform="scale(0.015625)"/>
      </defs>
      <use xlink:href="#DejaVuSans-78"/>
     </g>
    </g>
   </g>
   <g id="matplotlib.axis_2">
    <g id="ytick_1">
     <g id="line2d_19">
      <path d="M 46.55 225.33 
L 421.2 225.33 
" clip-path="url(#pdb6f72e686)" style="fill: none; stroke: #b0b0b0; stroke-width: 0.8; stroke-linecap: square"/>
     </g>
     <g id="line2d_20">
      <defs>
       <path id="md1d79edd6b" d="M 0 0 
L -3.5 0 
" style="stroke: #000000; stroke-width: 0.8"/>
      </defs>
      <g>
       <use xlink:href="#md1d79edd6b" x="46.55" y="225.33" style="stroke: #000000; stroke-width: 0.8"/>
      </g>
     </g>
     <g id="text_11">
      <!-- −4 -->
      <g transform="translate(24.807813 229.129219) scale(0.1 -0.1)">
       <defs>
        <path id="DejaVuSans-2212" d="M 678 2272 
L 4684 2272 
L 4684 1741 
L 678 1741 
L 678 2272 
z
" transform="scale(0.015625)"/>
        <path id="DejaVuSans-34" d="M 2419 4116 
L 825 1625 
L 2419 1625 
L 2419 4116 
z
M 2253 4666 
L 3047 4666 
L 3047 1625 
L 3713 1625 
L 3713 1100 
L 3047 1100 
L 3047 0 
L 2419 0 
L 2419 1100 
L 313 1100 
L 313 1709 
L 2253 4666 
z
" transform="scale(0.015625)"/>
       </defs>
       <use xlink:href="#DejaVuSans-2212"/>
       <use xlink:href="#DejaVuSans-34" x="83.789062"/>
      </g>
     </g>
    </g>
    <g id="ytick_2">
     <g id="line2d_21">
      <path d="M 46.55 203.53 
L 421.2 203.53 
" clip-path="url(#pdb6f72e686)" style="fill: none; stroke: #b0b0b0; stroke-width: 0.8; stroke-linecap: square"/>
     </g>
     <g id="line2d_22">
      <g>
       <use xlink:href="#md1d79edd6b" x="46.55" y="203.53" style="stroke: #000000; stroke-width: 0.8"/>
      </g>
     </g>
     <g id="text_12">
      <!-- −2 -->
      <g transform="translate(24.807813 207.329219) scale(0.1 -0.1)">
       <use xlink:href="#DejaVuSans-2212"/>
       <use xlink:href="#DejaVuSans-32" x="83.789062"/>
      </g>
     </g>
    </g>
    <g id="ytick_3">
     <g id="line2d_23">
      <path d="M 46.55 181.73 
L 421.2 181.73 
" clip-path="url(#pdb6f72e686)" style="fill: none; stroke: #b0b0b0; stroke-width: 0.8; stroke-linecap: square"/>
     </g>
     <g id="line2d_24">
      <g>
       <use xlink:href="#md1d79edd6b" x="46.55" y="181.73" style="stroke: #000000; stroke-width: 0.8"/>
      </g>
     </g>
     <g id="text_13">
      <!-- 0 -->
      <g transform="translate(33.1875 185.529219) scale(0.1 -0.1)">
       <use xlink:href="#DejaVuSans-30"/>
      </g>
     </g>
    </g>
    <g id="ytick_4">
     <g id="line2d_25">
      <path d="M 46.55 159.93 
L 421.2 159.93 
" clip-path="url(#pdb6f72e686)" style="fill: none; stroke: #b0b0b0; stroke-width: 0.8; stroke-linecap: square"/>
     </g>
     <g id="line2d_26">
      <g>
       <use xlink:href="#md1d79edd6b" x="46.55" y="159.93" style="stroke: #000000; stroke-width: 0.8"/>
      </g>
     </g>
     <g id="text_14">
      <!-- 2 -->
      <g transform="translate(33.1875 163.729219) scale(0.1 -0.1)">
       <use xlink:href="#DejaVuSans-32"/>
      </g>
     </g>
    </g>
    <g id="ytick_5">
     <g id="line2d_27">
      <path d="M 46.55 138.13 
L 421.2 138.13 
" clip-path="url(#pdb6f72e686)" style="fill: none; stroke: #b0b0b0; stroke-width: 0.8; stroke-linecap: square"/>
     </g>
     <g id="line2d_28">
      <g>
       <use xlink:href="#md1d79edd6b" x="46.55" y="138.13" style="stroke: #000000; stroke-width: 0.8"/>
      </g>
     </g>
     <g id="text_15">
      <!-- 4 -->
      <g transform="translate(33.1875 141.929219) scale(0.1 -0.1)">
       <use xlink:href="#DejaVuSans-34"/>
      </g>
     </g>
    </g>
    <g id="ytick_6">
     <g id="line2d_29">
      <path d="M 46.55 116.33 
L 421.2 116.33 
" clip-path="url(#pdb6f72e686)" style="fill: none; stroke: #b0b0b0; stroke-width: 0.8; stroke-linecap: square"/>
     </g>
     <g id="line2d_30">
      <g>
       <use xlink:href="#md1d79edd6b" x="46.55" y="116.33" style="stroke: #000000; stroke-width: 0.8"/>
      </g>
     </g>
     <g id="text_16">
      <!-- 6 -->
      <g transform="translate(33.1875 120.129219) scale(0.1 -0.1)">
       <defs>
        <path id="DejaVuSans-36" d="M 2113 2584 
Q 1688 2584 1439 2293 
Q 1191 2003 1191 1497 
Q 1191 994 1439 701 
Q 1688 409 2113 409 
Q 2538 409 2786 701 
Q 3034 994 3034 1497 
Q 3034 2003 2786 2293 
Q 2538 2584 2113 2584 
z
M 3366 4563 
L 3366 3988 
Q 3128 4100 2886 4159 
Q 2644 4219 2406 4219 
Q 1781 4219 1451 3797 
Q 1122 3375 1075 2522 
Q 1259 2794 1537 2939 
Q 1816 3084 2150 3084 
Q 2853 3084 3261 2657 
Q 3669 2231 3669 1497 
Q 3669 778 3244 343 
Q 2819 -91 2113 -91 
Q 1303 -91 875 529 
Q 447 1150 447 2328 
Q 447 3434 972 4092 
Q 1497 4750 2381 4750 
Q 2619 4750 2861 4703 
Q 3103 4656 3366 4563 
z
" transform="scale(0.015625)"/>
       </defs>
       <use xlink:href="#DejaVuSans-36"/>
      </g>
     </g>
    </g>
    <g id="ytick_7">
     <g id="line2d_31">
      <path d="M 46.55 94.53 
L 421.2 94.53 
" clip-path="url(#pdb6f72e686)" style="fill: none; stroke: #b0b0b0; stroke-width: 0.8; stroke-linecap: square"/>
     </g>
     <g id="line2d_32">
      <g>
       <use xlink:href="#md1d79edd6b" x="46.55" y="94.53" style="stroke: #000000; stroke-width: 0.8"/>
      </g>
     </g>
     <g id="text_17">
      <!-- 8 -->
      <g transform="translate(33.1875 98.329219) scale(0.1 -0.1)">
       <defs>
        <path id="DejaVuSans-38" d="M 2034 2216 
Q 1584 2216 1326 1975 
Q 1069 1734 1069 1313 
Q 1069 891 1326 650 
Q 1584 409 2034 409 
Q 2484 409 2743 651 
Q 3003 894 3003 1313 
Q 3003 1734 2745 1975 
Q 2488 2216 2034 2216 
z
M 1403 2484 
Q 997 2584 770 2862 
Q 544 3141 544 3541 
Q 544 4100 942 4425 
Q 1341 4750 2034 4750 
Q 2731 4750 3128 4425 
Q 3525 4100 3525 3541 
Q 3525 3141 3298 2862 
Q 3072 2584 2669 2484 
Q 3125 2378 3379 2068 
Q 3634 1759 3634 1313 
Q 3634 634 3220 271 
Q 2806 -91 2034 -91 
Q 1263 -91 848 271 
Q 434 634 434 1313 
Q 434 1759 690 2068 
Q 947 2378 1403 2484 
z
M 1172 3481 
Q 1172 3119 1398 2916 
Q 1625 2713 2034 2713 
Q 2441 2713 2670 2916 
Q 2900 3119 2900 3481 
Q 2900 3844 2670 4047 
Q 2441 4250 2034 4250 
Q 1625 4250 1398 4047 
Q 1172 3844 1172 3481 
z
" transform="scale(0.015625)"/>
       </defs>
       <use xlink:href="#DejaVuSans-38"/>
      </g>
     </g>
    </g>
    <g id="ytick_8">
     <g id="line2d_33">
      <path d="M 46.55 72.73 
L 421.2 72.73 
" clip-path="url(#pdb6f72e686)" style="fill: none; stroke: #b0b0b0; stroke-width: 0.8; stroke-linecap: square"/>
     </g>
     <g id="line2d_34">
      <g>
       <use xlink:href="#md1d79edd6b" x="46.55" y="72.73" style="stroke: #000000; stroke-width: 0.8"/>
      </g>
     </g>
     <g id="text_18">
      <!-- 10 -->
      <g transform="translate(26.825 76.529219) scale(0.1 -0.1)">
       <use xlink:href="#DejaVuSans-31"/>
       <use xlink:href="#DejaVuSans-30" x="63.623047"/>
      </g>
     </g>
    </g>
    <g id="text_19">
     <!-- y -->
     <g transform="translate(18.728125 155.259375) rotate(-90) scale(0.1 -0.1)">
      <defs>
       <path id="DejaVuSans-79" d="M 2059 -325 
Q 1816 -950 1584 -1140 
Q 1353 -1331 966 -1331 
L 506 -1331 
L 506 -850 
L 844 -850 
Q 1081 -850 1212 -737 
Q 1344 -625 1503 -206 
L 1606 56 
L 191 3500 
L 800 3500 
L 1894 763 
L 2988 3500 
L 3597 3500 
L 2059 -325 
z
" transform="scale(0.015625)"/>
      </defs>
      <use xlink:href="#DejaVuSans-79"/>
     </g>
    </g>
   </g>
   <g id="line2d_35">
    <path d="M 82.891548 -1 
L 86.302653 17.300426 
L 90.052903 36.261999 
L 93.803153 54.039483 
L 97.553403 70.662274 
L 100.928629 84.659816 
L 104.303854 97.767293 
L 107.679079 110.006133 
L 111.054304 121.397766 
L 114.42953 131.963618 
L 117.42973 140.679562 
L 120.42993 148.775019 
L 123.43013 156.265038 
L 126.43033 163.164669 
L 129.430531 169.488962 
L 132.430731 175.252967 
L 135.055906 179.848691 
L 137.681081 184.037048 
L 140.306256 187.828121 
L 142.931431 191.231993 
L 145.556607 194.258745 
L 148.181782 196.918459 
L 150.806957 199.221218 
L 153.057107 200.918546 
L 155.307257 202.367378 
L 157.557407 203.574062 
L 159.807558 204.544948 
L 162.057708 205.286385 
L 164.307858 205.804722 
L 166.558008 206.106308 
L 168.808158 206.197492 
L 171.058308 206.084624 
L 173.308458 205.774052 
L 175.933634 205.170312 
L 178.558809 204.316201 
L 181.183984 203.221799 
L 183.809159 201.897188 
L 186.809359 200.114393 
L 189.80956 198.059137 
L 192.80976 195.746468 
L 196.184985 192.855767 
L 199.56021 189.679754 
L 203.31046 185.842289 
L 207.435736 181.27988 
L 211.936036 175.939665 
L 216.811361 169.784254 
L 222.061712 162.797026 
L 228.437137 153.926564 
L 237.062713 141.494935 
L 255.063914 115.425484 
L 261.439339 106.628345 
L 267.064715 99.243589 
L 271.94004 93.209926 
L 276.44034 88.001206 
L 280.565616 83.575454 
L 284.315866 79.875601 
L 287.691091 76.834332 
L 291.066316 74.088697 
L 294.066517 71.91364 
L 297.066717 70.00415 
L 300.066917 68.375277 
L 302.692092 67.192037 
L 305.317267 66.245249 
L 307.942442 65.544995 
L 310.567618 65.101357 
L 312.817768 64.932983 
L 315.067918 64.966901 
L 317.318068 65.209458 
L 319.568218 65.667004 
L 321.818368 66.345888 
L 324.068519 67.252459 
L 326.318669 68.393066 
L 328.568819 69.774059 
L 330.818969 71.401786 
L 333.069119 73.282597 
L 335.319269 75.42284 
L 337.944444 78.256155 
L 340.56962 81.461311 
L 343.194795 85.04839 
L 345.81997 89.027474 
L 348.445145 93.408645 
L 351.07032 98.201986 
L 353.695495 103.417578 
L 356.695696 109.90823 
L 359.695896 116.978613 
L 362.696096 124.643777 
L 365.696296 132.91877 
L 368.696496 141.818644 
L 371.696697 151.358446 
L 375.071922 162.874379 
L 378.447147 175.240698 
L 381.822372 188.478831 
L 385.197598 202.610208 
L 388.572823 217.656256 
L 391.948048 233.638403 
L 395.698298 252.520301 
L 399.448549 272.613727 
L 402.348181 289 
L 402.348181 289 
" clip-path="url(#pdb6f72e686)" style="fill: none; stroke: #a18262; stroke-width: 1.5; stroke-linecap: square"/>
   </g>
   <g id="line2d_36">
    <path d="M 114.668182 132.68 
" clip-path="url(#pdb6f72e686)" style="fill: none; stroke: #f7dc6f; stroke-width: 1.5; stroke-linecap: square"/>
    <defs>
     <path id="mcfa21e2527" d="M 0 3 
C 0.795609 3 1.55874 2.683901 2.12132 2.12132 
C 2.683901 1.55874 3 0.795609 3 0 
C 3 -0.795609 2.683901 -1.55874 2.12132 -2.12132 
C 1.55874 -2.683901 0.795609 -3 0 -3 
C -0.795609 -3 -1.55874 -2.683901 -2.12132 -2.12132 
C -2.683901 -1.55874 -3 -0.795609 -3 0 
C -3 0.795609 -2.683901 1.55874 -2.12132 2.12132 
C -1.55874 2.683901 -0.795609 3 0 3 
z
" style="stroke: #f7dc6f"/>
    </defs>
    <g clip-path="url(#pdb6f72e686)">
     <use xlink:href="#mcfa21e2527" x="114.668182" y="132.68" style="fill: #f7dc6f; stroke: #f7dc6f"/>
    </g>
   </g>
   <g id="line2d_37">
    <path d="M 182.786364 202.44 
" clip-path="url(#pdb6f72e686)" style="fill: none; stroke: #f7dc6f; stroke-width: 1.5; stroke-linecap: square"/>
    <g clip-path="url(#pdb6f72e686)">
     <use xlink:href="#mcfa21e2527" x="182.786364" y="202.44" style="fill: #f7dc6f; stroke: #f7dc6f"/>
    </g>
   </g>
   <g id="line2d_38">
    <path d="M 216.845455 169.74 
" clip-path="url(#pdb6f72e686)" style="fill: none; stroke: #f7dc6f; stroke-width: 1.5; stroke-linecap: square"/>
    <g clip-path="url(#pdb6f72e686)">
     <use xlink:href="#mcfa21e2527" x="216.845455" y="169.74" style="fill: #f7dc6f; stroke: #f7dc6f"/>
    </g>
   </g>
   <g id="line2d_39">
    <path d="M 353.081818 102.16 
" clip-path="url(#pdb6f72e686)" style="fill: none; stroke: #f7dc6f; stroke-width: 1.5; stroke-linecap: square"/>
    <g clip-path="url(#pdb6f72e686)">
     <use xlink:href="#mcfa21e2527" x="353.081818" y="102.16" style="fill: #f7dc6f; stroke: #f7dc6f"/>
    </g>
   </g>
   <g id="line2d_40">
    <path d="M 46.55 181.73 
L 421.2 181.73 
" clip-path="url(#pdb6f72e686)" style="fill: none; stroke-dasharray: 3.7,1.6; stroke-dashoffset: 0; stroke: #ff0000"/>
   </g>
   <g id="line2d_41">
    <path clip-path="url(#pdb6f72e686)" style="fill: none; stroke-dasharray: 3.7,1.6; stroke-dashoffset: 0; stroke: #ff0000"/>
   </g>
   <g id="patch_3">
    <path d="M 46.55 246.04 
L 46.55 58.56 
" style="fill: none; stroke: #000000; stroke-width: 0.8; stroke-linejoin: miter; stroke-linecap: square"/>
   </g>
   <g id="patch_4">
    <path d="M 421.2 246.04 
L 421.2 58.56 
" style="fill: none; stroke: #000000; stroke-width: 0.8; stroke-linejoin: miter; stroke-linecap: square"/>
   </g>
   <g id="patch_5">
    <path d="M 46.55 246.04 
L 421.2 246.04 
" style="fill: none; stroke: #000000; stroke-width: 0.8; stroke-linejoin: miter; stroke-linecap: square"/>
   </g>
   <g id="patch_6">
    <path d="M 46.55 58.56 
L 421.2 58.56 
" style="fill: none; stroke: #000000; stroke-width: 0.8; stroke-linejoin: miter; stroke-linecap: square"/>
   </g>
   <g id="text_20">
    <!-- (19.0, 4.5) -->
    <g transform="translate(114.668182 130.808281) scale(0.09 -0.09)">
     <defs>
      <path id="DejaVuSans-28" d="M 1984 4856 
Q 1566 4138 1362 3434 
Q 1159 2731 1159 2009 
Q 1159 1288 1364 580 
Q 1569 -128 1984 -844 
L 1484 -844 
Q 1016 -109 783 600 
Q 550 1309 550 2009 
Q 550 2706 781 3412 
Q 1013 4119 1484 4856 
L 1984 4856 
z
" transform="scale(0.015625)"/>
      <path id="DejaVuSans-39" d="M 703 97 
L 703 672 
Q 941 559 1184 500 
Q 1428 441 1663 441 
Q 2288 441 2617 861 
Q 2947 1281 2994 2138 
Q 2813 1869 2534 1725 
Q 2256 1581 1919 1581 
Q 1219 1581 811 2004 
Q 403 2428 403 3163 
Q 403 3881 828 4315 
Q 1253 4750 1959 4750 
Q 2769 4750 3195 4129 
Q 3622 3509 3622 2328 
Q 3622 1225 3098 567 
Q 2575 -91 1691 -91 
Q 1453 -91 1209 -44 
Q 966 3 703 97 
z
M 1959 2075 
Q 2384 2075 2632 2365 
Q 2881 2656 2881 3163 
Q 2881 3666 2632 3958 
Q 2384 4250 1959 4250 
Q 1534 4250 1286 3958 
Q 1038 3666 1038 3163 
Q 1038 2656 1286 2365 
Q 1534 2075 1959 2075 
z
" transform="scale(0.015625)"/>
      <path id="DejaVuSans-2c" d="M 750 794 
L 1409 794 
L 1409 256 
L 897 -744 
L 494 -744 
L 750 256 
L 750 794 
z
" transform="scale(0.015625)"/>
      <path id="DejaVuSans-20" transform="scale(0.015625)"/>
      <path id="DejaVuSans-29" d="M 513 4856 
L 1013 4856 
Q 1481 4119 1714 3412 
Q 1947 2706 1947 2009 
Q 1947 1309 1714 600 
Q 1481 -109 1013 -844 
L 513 -844 
Q 928 -128 1133 580 
Q 1338 1288 1338 2009 
Q 1338 2731 1133 3434 
Q 928 4138 513 4856 
z
" transform="scale(0.015625)"/>
     </defs>
     <use xlink:href="#DejaVuSans-28"/>
     <use xlink:href="#DejaVuSans-31" x="39.013672"/>
     <use xlink:href="#DejaVuSans-39" x="102.636719"/>
     <use xlink:href="#DejaVuSans-2e" x="166.259766"/>
     <use xlink:href="#DejaVuSans-30" x="198.046875"/>
     <use xlink:href="#DejaVuSans-2c" x="261.669922"/>
     <use xlink:href="#DejaVuSans-20" x="293.457031"/>
     <use xlink:href="#DejaVuSans-34" x="325.244141"/>
     <use xlink:href="#DejaVuSans-2e" x="388.867188"/>
     <use xlink:href="#DejaVuSans-35" x="420.654297"/>
     <use xlink:href="#DejaVuSans-29" x="484.277344"/>
    </g>
   </g>
   <g id="text_21">
    <!-- (23.0, -1.9) -->
    <g transform="translate(182.786364 200.568281) scale(0.09 -0.09)">
     <defs>
      <path id="DejaVuSans-2d" d="M 313 2009 
L 1997 2009 
L 1997 1497 
L 313 1497 
L 313 2009 
z
" transform="scale(0.015625)"/>
     </defs>
     <use xlink:href="#DejaVuSans-28"/>
     <use xlink:href="#DejaVuSans-32" x="39.013672"/>
     <use xlink:href="#DejaVuSans-33" x="102.636719"/>
     <use xlink:href="#DejaVuSans-2e" x="166.259766"/>
     <use xlink:href="#DejaVuSans-30" x="198.046875"/>
     <use xlink:href="#DejaVuSans-2c" x="261.669922"/>
     <use xlink:href="#DejaVuSans-20" x="293.457031"/>
     <use xlink:href="#DejaVuSans-2d" x="325.244141"/>
     <use xlink:href="#DejaVuSans-31" x="361.328125"/>
     <use xlink:href="#DejaVuSans-2e" x="424.951172"/>
     <use xlink:href="#DejaVuSans-39" x="456.738281"/>
     <use xlink:href="#DejaVuSans-29" x="520.361328"/>
    </g>
   </g>
   <g id="text_22">
    <!-- (25.0, 1.1) -->
    <g transform="translate(216.845455 167.868281) scale(0.09 -0.09)">
     <use xlink:href="#DejaVuSans-28"/>
     <use xlink:href="#DejaVuSans-32" x="39.013672"/>
     <use xlink:href="#DejaVuSans-35" x="102.636719"/>
     <use xlink:href="#DejaVuSans-2e" x="166.259766"/>
     <use xlink:href="#DejaVuSans-30" x="198.046875"/>
     <use xlink:href="#DejaVuSans-2c" x="261.669922"/>
     <use xlink:href="#DejaVuSans-20" x="293.457031"/>
     <use xlink:href="#DejaVuSans-31" x="325.244141"/>
     <use xlink:href="#DejaVuSans-2e" x="388.867188"/>
     <use xlink:href="#DejaVuSans-31" x="420.654297"/>
     <use xlink:href="#DejaVuSans-29" x="484.277344"/>
    </g>
   </g>
   <g id="text_23">
    <!-- (33.0, 7.3) -->
    <g transform="translate(353.081818 100.288281) scale(0.09 -0.09)">
     <use xlink:href="#DejaVuSans-28"/>
     <use xlink:href="#DejaVuSans-33" x="39.013672"/>
     <use xlink:href="#DejaVuSans-33" x="102.636719"/>
     <use xlink:href="#DejaVuSans-2e" x="166.259766"/>
     <use xlink:href="#DejaVuSans-30" x="198.046875"/>
     <use xlink:href="#DejaVuSans-2c" x="261.669922"/>
     <use xlink:href="#DejaVuSans-20" x="293.457031"/>
     <use xlink:href="#DejaVuSans-37" x="325.244141"/>
     <use xlink:href="#DejaVuSans-2e" x="388.867188"/>
     <use xlink:href="#DejaVuSans-33" x="420.654297"/>
     <use xlink:href="#DejaVuSans-29" x="484.277344"/>
    </g>
   </g>
   <g id="text_24">
    <!-- f(x) = -0.04208333333333032*x**3+3.3362499999997683*x**2- -->
    <g transform="translate(68.285156 22.614187) scale(0.1 -0.1)">
     <defs>
      <path id="DejaVuSans-66" d="M 2375 4863 
L 2375 4384 
L 1825 4384 
Q 1516 4384 1395 4259 
Q 1275 4134 1275 3809 
L 1275 3500 
L 2222 3500 
L 2222 3053 
L 1275 3053 
L 1275 0 
L 697 0 
L 697 3053 
L 147 3053 
L 147 3500 
L 697 3500 
L 697 3744 
Q 697 4328 969 4595 
Q 1241 4863 1831 4863 
L 2375 4863 
z
" transform="scale(0.015625)"/>
      <path id="DejaVuSans-3d" d="M 678 2906 
L 4684 2906 
L 4684 2381 
L 678 2381 
L 678 2906 
z
M 678 1631 
L 4684 1631 
L 4684 1100 
L 678 1100 
L 678 1631 
z
" transform="scale(0.015625)"/>
      <path id="DejaVuSans-2a" d="M 3009 3897 
L 1888 3291 
L 3009 2681 
L 2828 2375 
L 1778 3009 
L 1778 1831 
L 1422 1831 
L 1422 3009 
L 372 2375 
L 191 2681 
L 1313 3291 
L 191 3897 
L 372 4206 
L 1422 3572 
L 1422 4750 
L 1778 4750 
L 1778 3572 
L 2828 4206 
L 3009 3897 
z
" transform="scale(0.015625)"/>
      <path id="DejaVuSans-2b" d="M 2944 4013 
L 2944 2272 
L 4684 2272 
L 4684 1741 
L 2944 1741 
L 2944 0 
L 2419 0 
L 2419 1741 
L 678 1741 
L 678 2272 
L 2419 2272 
L 2419 4013 
L 2944 4013 
z
" transform="scale(0.015625)"/>
     </defs>
     <use xlink:href="#DejaVuSans-66"/>
     <use xlink:href="#DejaVuSans-28" x="35.205078"/>
     <use xlink:href="#DejaVuSans-78" x="74.21875"/>
     <use xlink:href="#DejaVuSans-29" x="133.398438"/>
     <use xlink:href="#DejaVuSans-20" x="172.412109"/>
     <use xlink:href="#DejaVuSans-3d" x="204.199219"/>
     <use xlink:href="#DejaVuSans-20" x="287.988281"/>
     <use xlink:href="#DejaVuSans-2d" x="319.775391"/>
     <use xlink:href="#DejaVuSans-30" x="355.859375"/>
     <use xlink:href="#DejaVuSans-2e" x="419.482422"/>
     <use xlink:href="#DejaVuSans-30" x="451.269531"/>
     <use xlink:href="#DejaVuSans-34" x="514.892578"/>
     <use xlink:href="#DejaVuSans-32" x="578.515625"/>
     <use xlink:href="#DejaVuSans-30" x="642.138672"/>
     <use xlink:href="#DejaVuSans-38" x="705.761719"/>
     <use xlink:href="#DejaVuSans-33" x="769.384766"/>
     <use xlink:href="#DejaVuSans-33" x="833.007812"/>
     <use xlink:href="#DejaVuSans-33" x="896.630859"/>
     <use xlink:href="#DejaVuSans-33" x="960.253906"/>
     <use xlink:href="#DejaVuSans-33" x="1023.876953"/>
     <use xlink:href="#DejaVuSans-33" x="1087.5"/>
     <use xlink:href="#DejaVuSans-33" x="1151.123047"/>
     <use xlink:href="#DejaVuSans-33" x="1214.746094"/>
     <use xlink:href="#DejaVuSans-33" x="1278.369141"/>
     <use xlink:href="#DejaVuSans-30" x="1341.992188"/>
     <use xlink:href="#DejaVuSans-33" x="1405.615234"/>
     <use xlink:href="#DejaVuSans-32" x="1469.238281"/>
     <use xlink:href="#DejaVuSans-2a" x="1532.861328"/>
     <use xlink:href="#DejaVuSans-78" x="1582.861328"/>
     <use xlink:href="#DejaVuSans-2a" x="1642.041016"/>
     <use xlink:href="#DejaVuSans-2a" x="1692.041016"/>
     <use xlink:href="#DejaVuSans-33" x="1742.041016"/>
     <use xlink:href="#DejaVuSans-2b" x="1805.664062"/>
     <use xlink:href="#DejaVuSans-33" x="1889.453125"/>
     <use xlink:href="#DejaVuSans-2e" x="1953.076172"/>
     <use xlink:href="#DejaVuSans-33" x="1984.863281"/>
     <use xlink:href="#DejaVuSans-33" x="2048.486328"/>
     <use xlink:href="#DejaVuSans-36" x="2112.109375"/>
     <use xlink:href="#DejaVuSans-32" x="2175.732422"/>
     <use xlink:href="#DejaVuSans-34" x="2239.355469"/>
     <use xlink:href="#DejaVuSans-39" x="2302.978516"/>
     <use xlink:href="#DejaVuSans-39" x="2366.601562"/>
     <use xlink:href="#DejaVuSans-39" x="2430.224609"/>
     <use xlink:href="#DejaVuSans-39" x="2493.847656"/>
     <use xlink:href="#DejaVuSans-39" x="2557.470703"/>
     <use xlink:href="#DejaVuSans-39" x="2621.09375"/>
     <use xlink:href="#DejaVuSans-39" x="2684.716797"/>
     <use xlink:href="#DejaVuSans-37" x="2748.339844"/>
     <use xlink:href="#DejaVuSans-36" x="2811.962891"/>
     <use xlink:href="#DejaVuSans-38" x="2875.585938"/>
     <use xlink:href="#DejaVuSans-33" x="2939.208984"/>
     <use xlink:href="#DejaVuSans-2a" x="3002.832031"/>
     <use xlink:href="#DejaVuSans-78" x="3052.832031"/>
     <use xlink:href="#DejaVuSans-2a" x="3112.011719"/>
     <use xlink:href="#DejaVuSans-2a" x="3162.011719"/>
     <use xlink:href="#DejaVuSans-32" x="3212.011719"/>
     <use xlink:href="#DejaVuSans-2d" x="3275.634766"/>
    </g>
    <!-- 85.87791666666087*x**1+720.4437499999526 -->
    <g transform="translate(111.066406 33.812) scale(0.1 -0.1)">
     <use xlink:href="#DejaVuSans-38"/>
     <use xlink:href="#DejaVuSans-35" x="63.623047"/>
     <use xlink:href="#DejaVuSans-2e" x="127.246094"/>
     <use xlink:href="#DejaVuSans-38" x="159.033203"/>
     <use xlink:href="#DejaVuSans-37" x="222.65625"/>
     <use xlink:href="#DejaVuSans-37" x="286.279297"/>
     <use xlink:href="#DejaVuSans-39" x="349.902344"/>
     <use xlink:href="#DejaVuSans-31" x="413.525391"/>
     <use xlink:href="#DejaVuSans-36" x="477.148438"/>
     <use xlink:href="#DejaVuSans-36" x="540.771484"/>
     <use xlink:href="#DejaVuSans-36" x="604.394531"/>
     <use xlink:href="#DejaVuSans-36" x="668.017578"/>
     <use xlink:href="#DejaVuSans-36" x="731.640625"/>
     <use xlink:href="#DejaVuSans-36" x="795.263672"/>
     <use xlink:href="#DejaVuSans-30" x="858.886719"/>
     <use xlink:href="#DejaVuSans-38" x="922.509766"/>
     <use xlink:href="#DejaVuSans-37" x="986.132812"/>
     <use xlink:href="#DejaVuSans-2a" x="1049.755859"/>
     <use xlink:href="#DejaVuSans-78" x="1099.755859"/>
     <use xlink:href="#DejaVuSans-2a" x="1158.935547"/>
     <use xlink:href="#DejaVuSans-2a" x="1208.935547"/>
     <use xlink:href="#DejaVuSans-31" x="1258.935547"/>
     <use xlink:href="#DejaVuSans-2b" x="1322.558594"/>
     <use xlink:href="#DejaVuSans-37" x="1406.347656"/>
     <use xlink:href="#DejaVuSans-32" x="1469.970703"/>
     <use xlink:href="#DejaVuSans-30" x="1533.59375"/>
     <use xlink:href="#DejaVuSans-2e" x="1597.216797"/>
     <use xlink:href="#DejaVuSans-34" x="1629.003906"/>
     <use xlink:href="#DejaVuSans-34" x="1692.626953"/>
     <use xlink:href="#DejaVuSans-33" x="1756.25"/>
     <use xlink:href="#DejaVuSans-37" x="1819.873047"/>
     <use xlink:href="#DejaVuSans-34" x="1883.496094"/>
     <use xlink:href="#DejaVuSans-39" x="1947.119141"/>
     <use xlink:href="#DejaVuSans-39" x="2010.742188"/>
     <use xlink:href="#DejaVuSans-39" x="2074.365234"/>
     <use xlink:href="#DejaVuSans-39" x="2137.988281"/>
     <use xlink:href="#DejaVuSans-39" x="2201.611328"/>
     <use xlink:href="#DejaVuSans-35" x="2265.234375"/>
     <use xlink:href="#DejaVuSans-32" x="2328.857422"/>
     <use xlink:href="#DejaVuSans-36" x="2392.480469"/>
    </g>
   </g>
   <g id="legend_1">
    <g id="patch_7">
     <path d="M 364.957812 81.238125 
L 414.2 81.238125 
Q 416.2 81.238125 416.2 79.238125 
L 416.2 65.56 
Q 416.2 63.56 414.2 63.56 
L 364.957812 63.56 
Q 362.957812 63.56 362.957812 65.56 
L 362.957812 79.238125 
Q 362.957812 81.238125 364.957812 81.238125 
z
" style="fill: #ffffff; opacity: 0.8; stroke: #cccccc; stroke-linejoin: miter"/>
    </g>
    <g id="line2d_42">
     <path d="M 366.957812 71.658437 
L 376.957812 71.658437 
L 386.957812 71.658437 
" style="fill: none; stroke: #a18262; stroke-width: 1.5; stroke-linecap: square"/>
    </g>
    <g id="text_25">
     <!-- f(x) -->
     <g transform="translate(394.957812 75.158437) scale(0.1 -0.1)">
      <use xlink:href="#DejaVuSans-66"/>
      <use xlink:href="#DejaVuSans-28" x="35.205078"/>
      <use xlink:href="#DejaVuSans-78" x="74.21875"/>
      <use xlink:href="#DejaVuSans-29" x="133.398438"/>
     </g>
    </g>
   </g>
  </g>
 </g>
 <defs>
  <clipPath id="pdb6f72e686">
   <rect x="46.55" y="58.56" width="374.65" height="187.48"/>
  </clipPath>
 </defs>
</svg>
